<svg xmlns="http://www.w3.org/2000/svg" width="28" height="27" viewBox="0 0 28 27" fill="none">
  <path d="M19.9284 12.8541C23.8346 12.8541 27.0014 16.0207 27.0014 19.927C27.0014 23.8332 23.8346 27 19.9284 27C16.0221 27 12.8554 23.8332 12.8554 19.927C12.8554 16.0207 16.0221 12.8541 19.9284 12.8541ZM16.525 19.4723C16.274 19.2211 15.8668 19.2211 15.6157 19.4723C15.3645 19.7235 15.3645 20.1306 15.6157 20.3816L18.1877 22.9536C18.4388 23.2048 18.846 23.2048 19.097 22.9536L24.241 17.8096C24.4921 17.5586 24.4921 17.1515 24.241 16.9003C23.99 16.6492 23.5828 16.6492 23.3317 16.9003L18.6424 21.5896L16.525 19.4723ZM12.884 15.4251C12.5024 16.021 12.1944 16.6683 11.9727 17.3545L2.89204 17.3549C2.36016 17.3549 1.92899 17.7861 1.92899 18.318V19.0608C1.92899 19.7497 2.17476 20.416 2.62209 20.9398C4.23384 22.8272 6.76195 23.7863 10.2834 23.7863C11.0504 23.7863 11.7704 23.7408 12.4442 23.6501C12.7595 24.2866 13.1549 24.8763 13.6164 25.4073C12.5933 25.6133 11.4811 25.7153 10.2834 25.7153C6.23783 25.7153 3.16944 24.5513 1.15518 22.1924C0.409602 21.3194 0 20.2089 0 19.0608V18.318C0 16.7207 1.2948 15.4259 2.89204 15.4259L12.884 15.4251ZM10.2834 0C13.8346 0 16.7134 2.8788 16.7134 6.42997C16.7134 9.98116 13.8346 12.86 10.2834 12.86C6.73222 12.86 3.85342 9.98116 3.85342 6.42997C3.85342 2.8788 6.73222 0 10.2834 0ZM10.2834 1.92899C7.79758 1.92899 5.78241 3.94416 5.78241 6.42997C5.78241 8.9158 7.79758 10.931 10.2834 10.931C12.7693 10.931 14.7844 8.9158 14.7844 6.42997C14.7844 3.94416 12.7693 1.92899 10.2834 1.92899Z" fill="#4231B4"/>
</svg>