<svg xmlns="http://www.w3.org/2000/svg" width="30" height="29" viewBox="0 0 30 29" fill="none">
  <path d="M21.7 13.1C25.9526 13.1 29.4 16.5474 29.4 20.8C29.4 25.0526 25.9526 28.5 21.7 28.5C17.4474 28.5 14 25.0526 14 20.8C14 16.5474 17.4474 13.1 21.7 13.1ZM21.7 15.8989L21.5741 15.9102C21.2884 15.962 21.0631 16.1874 21.0113 16.4732L21 16.5989L20.9994 20.0989L17.4968 20.1L17.3709 20.1113C17.0852 20.1631 16.8598 20.3884 16.808 20.6741L16.7968 20.8L16.808 20.9259C16.8598 21.2116 17.0852 21.4369 17.3709 21.4887L17.4968 21.5L21.001 21.4989L21.0015 25.0049L21.0129 25.1308C21.0647 25.4165 21.2899 25.6418 21.5757 25.6936L21.7015 25.7049L21.8274 25.6936C22.1131 25.6418 22.3384 25.4165 22.3903 25.1308L22.4015 25.0049L22.401 21.4989L25.9064 21.5L26.0322 21.4887C26.3179 21.4369 26.5433 21.2116 26.5951 20.9259L26.6064 20.8L26.5951 20.6741C26.5433 20.3884 26.3179 20.1631 26.0322 20.1113L25.9064 20.1L22.3994 20.0989L22.4 16.5989L22.3887 16.4732C22.3369 16.1874 22.1116 15.962 21.8259 15.9102L21.7 15.8989ZM17.1556 10.3C18.324 10.3 19.3438 10.9362 19.8876 11.8809C19.1408 12.0315 18.4283 12.2734 17.7611 12.5943C17.5909 12.4714 17.3816 12.4 17.1556 12.4H10.8527C10.2728 12.4 9.8027 12.8701 9.8027 13.45V19.3986C9.8027 21.3739 11.1658 23.0308 13.0026 23.4799C13.2446 24.2717 13.5936 25.0179 14.0316 25.7017L14.0042 25.7C10.524 25.7 7.7027 22.8787 7.7027 19.3986V13.45C7.7027 11.7104 9.11301 10.3 10.8527 10.3H17.1556ZM7.56903 10.3004C7.01649 10.8762 6.61398 11.5972 6.42433 12.4004L3.15 12.4C2.57011 12.4 2.1 12.8701 2.1 13.45V17.2983C2.1 19.2323 3.66778 20.8 5.60174 20.8C5.88172 20.8 6.15404 20.7671 6.41502 20.7051C6.53362 21.4105 6.75018 22.0834 7.04882 22.7096C6.58808 22.8342 6.10258 22.9 5.60174 22.9C2.50799 22.9 0 20.392 0 17.2983V13.45C0 11.7827 1.29522 10.4182 2.93433 10.3073L3.15 10.3L7.56903 10.3004ZM24.85 10.3C26.5896 10.3 28 11.7104 28 13.45L28.0011 14.2346C26.3659 12.6647 24.1457 11.7 21.7 11.7L21.3567 11.7063C21.1414 11.1807 20.8274 10.7049 20.4393 10.3004L24.85 10.3ZM23.1 1.9C25.033 1.9 26.6 3.46701 26.6 5.4C26.6 7.33299 25.033 8.9 23.1 8.9C21.167 8.9 19.6 7.33299 19.6 5.4C19.6 3.46701 21.167 1.9 23.1 1.9ZM14 0.5C16.3197 0.5 18.2 2.38041 18.2 4.7C18.2 7.01959 16.3197 8.9 14 8.9C11.6803 8.9 9.8 7.01959 9.8 4.7C9.8 2.38041 11.6803 0.5 14 0.5ZM4.9 1.9C6.83299 1.9 8.4 3.46701 8.4 5.4C8.4 7.33299 6.83299 8.9 4.9 8.9C2.96701 8.9 1.4 7.33299 1.4 5.4C1.4 3.46701 2.96701 1.9 4.9 1.9ZM23.1 4C22.3268 4 21.7 4.62681 21.7 5.4C21.7 6.17319 22.3268 6.8 23.1 6.8C23.8732 6.8 24.5 6.17319 24.5 5.4C24.5 4.62681 23.8732 4 23.1 4ZM14 2.6C12.8402 2.6 11.9 3.5402 11.9 4.7C11.9 5.8598 12.8402 6.8 14 6.8C15.1598 6.8 16.1 5.8598 16.1 4.7C16.1 3.5402 15.1598 2.6 14 2.6ZM4.9 4C4.12681 4 3.5 4.62681 3.5 5.4C3.5 6.17319 4.12681 6.8 4.9 6.8C5.67319 6.8 6.3 6.17319 6.3 5.4C6.3 4.62681 5.67319 4 4.9 4Z" fill="#4231B4"/>
  
</svg>