<svg width="18" height="19" viewBox="0 0 18 19" fill="none" xmlns="http://www.w3.org/2000/svg">
<path d="M16.9983 9.77848C16.8139 9.08405 16.4551 8.44482 15.9561 7.92703C16.3767 6.76448 16.2553 5.47167 15.6282 4.40517C14.6599 2.78335 12.7522 1.9741 10.9118 2.40688C9.88611 1.21122 8.29189 0.673555 6.75398 1.00035C5.21496 1.32604 3.97514 2.46539 3.52249 3.97129C2.29039 4.18768 1.21396 4.934 0.580248 6.01374C-0.373634 7.63777 -0.134059 9.69899 1.1709 11.0581C0.751372 12.2217 0.871711 13.5145 1.4988 14.5799C2.46372 16.2095 4.3748 17.0209 6.21521 16.576C7.23644 17.7717 8.83066 18.317 10.3697 17.9947C11.9109 17.6723 13.1518 16.5351 13.6078 15.0304C14.841 14.8151 15.9174 14.0665 16.5511 12.9879C17.1263 12.023 17.2875 10.8648 16.9983 9.77848ZM13.6464 13.8557V9.5908C13.6464 9.40863 13.6045 9.24634 13.451 9.16464L9.53724 6.95327L10.9504 6.15064L14.2625 8.03412C15.0099 8.45365 15.5564 9.16023 15.7761 9.99046C15.9969 10.8041 15.881 11.6741 15.4504 12.4017C15.106 12.9956 14.5804 13.4615 13.9523 13.7331C13.8529 13.7762 13.7491 13.817 13.6464 13.8557ZM3.48495 5.14156V9.39539C3.48495 9.56761 3.51697 9.74536 3.67595 9.82154L7.58973 12.0329L6.17657 12.8355L2.85013 10.9488C2.1027 10.5281 1.55621 9.82154 1.3354 8.99131C1.1146 8.17875 1.23162 7.30767 1.65999 6.58232C1.95476 6.07999 2.37871 5.67039 2.88325 5.39328C3.08419 5.28288 3.26856 5.20891 3.48495 5.14156ZM11.2087 5.15812C11.0575 5.07201 10.8753 5.07201 10.7241 5.15812L6.75619 7.42249V5.77969L10.129 3.89622C11.6835 3.01189 13.6597 3.53299 14.5749 5.0698C14.8973 5.62181 15.043 6.25442 14.9967 6.88482C14.9867 7.0151 14.9702 7.15421 14.9492 7.28227L11.2087 5.15812ZM8.56348 7.5362L10.3719 8.56184V10.4508L8.56348 11.45L6.7595 10.4243V8.54528L8.56348 7.5362ZM6.03194 5.06649C5.87517 5.14598 5.82439 5.34139 5.82439 5.49375V9.88447L4.40019 9.10171V5.42309C4.40129 5.39549 4.40129 5.3723 4.40019 5.34581C4.41344 4.09053 5.14983 2.95227 6.29139 2.42675C7.32035 1.95092 8.51491 2.04918 9.44781 2.66412C9.57809 2.75023 9.70395 2.84739 9.82429 2.94675L6.03194 5.06649ZM2.1833 11.7105L5.91823 13.8325C6.06948 13.9175 6.25165 13.9175 6.4029 13.8325L10.3752 11.5736V13.2197L6.99797 15.09C5.4435 15.9743 3.46839 15.4532 2.55315 13.9164C2.19875 13.3114 2.05744 12.6081 2.14907 11.917C2.15901 11.8474 2.17115 11.779 2.1833 11.7105ZM11.0994 13.9219C11.2562 13.8424 11.3026 13.6702 11.3026 13.4924V9.10171L12.7235 9.88447V13.5642C12.7213 13.5896 12.7213 13.6139 12.7235 13.6404C12.7069 14.8957 11.9738 16.0295 10.8345 16.555C9.78344 17.0397 8.56459 16.9304 7.62285 16.2834C7.51576 16.2106 7.40867 16.1255 7.30268 16.0394L11.0994 13.9219Z" fill="#52295B"/>
</svg>
