<svg xmlns="http://www.w3.org/2000/svg" width="32" height="32" viewBox="0 0 23 26" fill="none">
<path d="M21.7979 14.7837H16.3838C16.03 14.7837 15.7115 15.0313 15.6761 15.3852C15.393 17.5435 13.5175 19.2064 11.2882 19.2064L12.739 25.8936C18.0116 25.2213 22.1518 20.8694 22.5056 15.5267C22.541 15.1375 22.2225 14.7837 21.7979 14.7837Z" fill="#2684FF"/>
<path d="M12.456 14.6074L20.2409 7.91979C20.5594 7.63672 20.5594 7.14135 20.2409 6.85828L12.456 0.170702C11.9959 -0.218521 11.2882 0.0999346 11.2882 0.701461V14.0766C11.2882 14.6781 11.9959 14.9966 12.456 14.6074Z" fill="#2684FF"/>
<path d="M0.141571 16.2344C0.849294 21.7541 5.59104 26.0001 11.2882 26.0001V19.2066C8.84657 19.2066 6.82955 17.2251 6.82955 14.7837L0.141571 16.2344Z" fill="url(#paint0_linear)"/>
<path d="M0 14.6781V14.7842H6.82953C6.82953 12.3428 8.81116 10.3613 11.2882 10.3613L9.83735 3.67383C4.31711 4.3815 0.0707723 9.01671 0 14.6781Z" fill="url(#paint1_linear)"/>
<defs>
<linearGradient id="paint0_linear" x1="5.69925" y1="3.74522" x2="5.69925" y2="19.0762" gradientUnits="userSpaceOnUse">
<stop stop-color="#0052CC"/>
<stop offset="1" stop-color="#2684FF"/>
</linearGradient>
<linearGradient id="paint1_linear" x1="5.6459" y1="3.74559" x2="5.6459" y2="19.0768" gradientUnits="userSpaceOnUse">
<stop stop-color="#0052CC"/>
<stop offset="1" stop-color="#2684FF"/>
</linearGradient>
</defs>
</svg>
