<svg xmlns="http://www.w3.org/2000/svg" width="17" height="16" viewBox="0 0 17 16" fill="none">
<path d="M8.49992 1.33594C12.1818 1.33594 15.1666 4.3207 15.1666 8.0026C15.1666 11.6845 12.1818 14.6693 8.49992 14.6693C4.81802 14.6693 1.83325 11.6845 1.83325 8.0026C1.83325 4.3207 4.81802 1.33594 8.49992 1.33594ZM8.49992 2.33594C5.37031 2.33594 2.83325 4.87299 2.83325 8.0026C2.83325 11.1322 5.37031 13.6693 8.49992 13.6693C11.6295 13.6693 14.1666 11.1322 14.1666 8.0026C14.1666 4.87299 11.6295 2.33594 8.49992 2.33594ZM7.66658 8.96214L10.6464 5.98238C10.8417 5.78712 11.1582 5.78712 11.3535 5.98238C11.531 6.1599 11.5471 6.43767 11.4019 6.63341L11.3535 6.68947L8.02012 10.0228C7.84265 10.2003 7.56485 10.2165 7.36912 10.0712L7.31305 10.0228L5.64636 8.35614C5.4511 8.16087 5.4511 7.84434 5.64636 7.64907C5.82388 7.47154 6.10165 7.4554 6.29739 7.60067L6.35347 7.64907L7.66658 8.96214Z" fill="#2BC977"/>
</svg>