<svg width="119" height="157" viewBox="0 0 119 157" fill="none" xmlns="http://www.w3.org/2000/svg">
<path fill-rule="evenodd" clip-rule="evenodd" d="M60.2 0.100006C61.5274 0.194823 91.084 3.1665 112.983 25.8929C114.181 27.1353 115.355 28.4368 116.501 29.8L118.601 32.3V52.5H118.6H100.601H100.6V39C85 22.5 63.8 18.7 59.3 18.1C54.9 18.7 33.4 22.6 18 39V55L10.3 60.9H59.3008H118.6H118.601V90.7C118.601 94.6821 118.039 98.5157 117.029 102.19C108.212 134.294 65.1837 154.347 63.0088 155.296C63.0061 155.298 63.0034 155.299 63.0008 155.3L59.3008 157V157L59.3 157L55.6 155.3C53.3 154.3 0 130.2 0 93.4V87.3H22.3L18 93.4C18 105.5 29.7 116.4 39.5 124.2C43.0306 126.967 58.0335 137.018 59.4002 137.933C60.7559 137.023 75.571 127.062 79.1008 124.2C88.9008 116.4 100.601 104.3 100.601 90.7V85.9L109.201 78.9H59.3008H0.200001V32.3L2.3 29.8C24.4 3.60002 57.2 0.200006 58.6 0.100006L59.3008 0.0124032V0L59.3504 0.00620165L59.4 0L60.2 0.100006Z" fill="#F9BC00"/>
</svg>
