<svg xmlns="http://www.w3.org/2000/svg" width="30" height="32" viewBox="0 0 30 32" fill="none">
<path d="M8.2365 24.887L11.8832 18.9304L15.4732 22.4993L11.3466 23.8608L8.2365 24.887ZM18.2173 4.29742L20.9031 15.8041L15.6275 12.5809L18.2173 4.29742ZM15.6558 21.9829L12.1472 18.495L15.2261 13.3396L15.6558 21.9829ZM11.6248 18.405L9.91361 21.2001L7.86203 17.7058L7.58264 17.2298L13.6776 14.9676L11.6248 18.405ZM15.7148 13.2144L20.8683 16.3629L16.1503 21.9702L15.7148 13.2144ZM21.862 16.9699L25.867 19.4168L23.7351 21.4529L21.862 16.9699ZM23.3501 21.8141L19.8339 23.7107C20.2229 22.0447 21.0089 18.6689 21.3763 17.0904L23.3501 21.8141ZM21.6576 16.2651L25.844 13.2L26.2497 19.0706L21.6576 16.2651ZM25.7238 12.6746L21.7137 15.6107C22.0978 13.8816 23.1515 9.14816 23.5286 7.55944L25.7238 12.6746ZM20.0808 0L23.5739 2.68947L21.5779 2.57049L20.0808 0ZM21.5165 3.06289L23.8441 3.20158L21.817 5.51895L20.0831 4.30051L21.5165 3.06289ZM23.1423 7.05513C22.8992 8.00915 21.7508 13.1637 21.2845 15.2625L18.6284 3.88331L23.1423 7.05513ZM14.3587 5.29937L17.8665 3.76191L16.4952 8.14819L13.3564 7.35679L14.3587 5.29937ZM13.4971 5.93855L12.8664 7.23323L12.8554 7.23045L10.8514 5.78179L12.4371 5.37869L13.4971 5.93855ZM12.2502 4.91525L10.844 5.27271L12.6169 2.6359L12.2502 4.91525ZM11.9953 10.7496C11.8944 10.6983 11.8233 10.6028 11.8028 10.4914L11.446 8.54659C11.392 8.3873 11.4845 8.21561 11.6472 8.17353L13.0901 7.80029L16.3472 8.62156L15.1936 12.311L11.9953 10.7496ZM3.63067 11.8796C3.65517 11.8229 3.83601 11.4784 3.91459 11.333C3.83088 11.2762 3.07279 11.0385 2.79588 10.9574C2.74978 10.9438 2.70474 10.9267 2.62175 10.8985C2.7039 10.8688 2.74868 10.8501 2.79492 10.8363C3.06175 10.7567 3.81723 10.519 3.90687 10.4582C3.83221 10.3224 3.65343 9.99058 3.62639 9.93569C3.6815 9.96156 4.01504 10.1376 4.15041 10.2128C4.21306 10.119 4.44984 9.36513 4.52667 9.1024C4.54007 9.05651 4.55751 9.01184 4.57314 8.96662C4.58322 8.96638 4.59336 8.96613 4.60344 8.9659C4.65246 9.12816 4.7017 9.29036 4.75035 9.45274C4.7984 9.61301 4.97355 10.1375 5.03113 10.2218C5.17086 10.1447 5.51024 9.96146 5.54024 9.94683C5.54531 9.95173 5.55044 9.95657 5.55551 9.96147C5.4998 10.0657 5.31879 10.4031 5.28396 10.4675C5.36326 10.5184 6.19003 10.7803 6.55392 10.8887C6.47587 10.9199 6.43912 10.9382 6.40037 10.9495C6.11856 11.032 5.35692 11.2708 5.27436 11.3252C5.36833 11.499 5.46388 11.6759 5.57071 11.8735C5.51687 11.8503 5.16795 11.6635 5.01918 11.5819C4.96757 11.6612 4.70249 12.4974 4.59354 12.8647C4.56094 12.7823 4.54253 12.744 4.53047 12.7037C4.44464 12.4172 4.20859 11.6662 4.16199 11.591C3.99305 11.6822 3.82128 11.7761 3.63067 11.8796ZM5.07283 16.9531L4.46565 14.9091L4.58896 13.8194L4.84928 13.3801L4.99535 14.8956L5.8156 16.9583L6.78311 17.2039L6.14719 18.1829L5.07283 16.9531ZM6.20536 19.0015L6.31195 18.8373L7.17384 17.5104L9.48682 21.4501L4.91565 20.987L6.20536 19.0015ZM4.69881 21.4628L9.45761 21.9449L7.3881 25.3254L4.69892 27.0881L3.93433 24.1365L4.69881 21.4628ZM3.42027 30.3915H0L3.59042 24.7804L4.29563 27.5026L3.42027 30.3915ZM11.4383 24.352L15.6764 22.9536L15.5495 25.225L14.1485 26.156L12.0065 27.3964L11.4383 24.352ZM10.2111 30.3915L11.7951 28.0909L13.7021 26.9866L14.3337 30.3915H10.2111ZM19.8475 32H14.9251L16.0149 25.3934L16.0218 25.3946L16.1489 23.6408L18.3152 28.2269L18.3148 28.2287L19.8475 32ZM18.4905 27.4401L16.2268 22.6478L20.8555 17.1465C20.3043 19.5145 19.1325 24.5384 19.1278 24.557L18.4905 27.4401ZM23.9445 21.9372L26.3547 19.6353L27.6789 23.7659L26.2681 27.1265L23.9445 21.9372ZM25.3696 30.4381L27.8998 24.5173L29.313 30.4381H25.3696Z" fill="url(#paint0_linear_4923_18572)"/>
<defs>
<linearGradient id="paint0_linear_4923_18572" x1="-6.73015e-08" y1="16.0001" x2="29.3139" y2="16.0076" gradientUnits="userSpaceOnUse">
<stop stop-color="#261C67"/>
<stop offset="1" stop-color="#0F0B29"/>
</linearGradient>
</defs>
</svg>
