<svg xmlns="http://www.w3.org/2000/svg" width="14" height="14" viewBox="0 0 14 14" fill="none">
  <path d="M6.125 7.875V3.5H7.875V7.875H6.125Z" fill="#DC2626"/>
  <path d="M6.125 8.75V10.5H7.875V8.75H6.125Z" fill="#DC2626"/>
  <path d="M13.125 7C13.125 10.3824 10.3824 13.125 7 13.125C3.61758 13.125 0.875 10.3824 0.875 7C0.875 3.61758 3.61758 0.875 7 0.875C10.3824 0.875 13.125 3.61758 13.125 7ZM12.25 7C12.25 4.10156 9.89844 1.75 7 1.75C4.10156 1.75 1.75 4.10156 1.75 7C1.75 9.89844 4.10156 12.25 7 12.25C9.89844 12.25 12.25 9.89844 12.25 7Z" fill="#DC2626"/>
</svg>