<svg width="320" height="145" viewBox="0 0 280 145" fill="none" xmlns="http://www.w3.org/2000/svg">
<path fill-rule="evenodd" clip-rule="evenodd" d="M280 42L255.429 49.6866C232.393 58.9104 184.786 75.8209 137.179 75.8209C89.5714 75.8209 40.4286 58.9104 -7.17856 58.9104C-54.7857 58.9104 -102.393 75.8209 -125.429 85.0448L-150 92.7313V145H-125.429C-102.393 145 -54.7857 145 -7.17856 145C40.4286 145 89.5714 145 137.179 145C184.786 145 232.393 145 255.429 145H280V42Z" fill="#0F0B29"/>
<path fill-rule="evenodd" clip-rule="evenodd" d="M280 0L229.5 24.3064C179 48.6127 78 96.8064 -23 117.76C-124 139.133 -254.634 127.917 -275.5 129.913C-296.366 131.91 -326 145 -326 145H-275.5C-225 145 -124 145 -23 145C78 145 179 145 229.5 145H280V0Z" fill="#383448" fill-opacity="0.6"/>
</svg>
