<svg width="60" height="68" viewBox="0 0 60 68" fill="none" xmlns="http://www.w3.org/2000/svg">
<path d="M28.9183 0.16249C29.1061 0.109068 29.294 0.0534213 29.4818 0C29.5282 0 29.5746 0 29.6232 0C29.8047 0.100165 30.0094 -0.020033 30.193 0.0690025C30.2141 0.0690025 30.2352 0.0756801 30.2563 0.0868096C30.383 0.298269 30.3724 0.534213 30.3724 0.767931C30.3682 11.2474 30.3724 21.7269 30.3724 32.2086C30.3724 32.4178 30.3576 32.6315 30.4041 32.8363C30.4568 33.0722 30.4146 33.2748 30.269 33.4595C29.9792 33.7044 29.6858 33.7259 29.3889 33.5241C29.2349 33.4195 29.0787 33.3148 28.9225 33.2124C28.8022 33.0655 28.7579 32.8897 28.7473 32.7005C28.7389 32.5647 28.7389 32.4289 28.7389 32.2932C28.7389 21.8894 28.7389 11.4878 28.7389 1.08401C28.7389 0.767931 28.6925 0.434048 28.9225 0.166941L28.9183 0.16249Z" fill="#0AB4D3"/>
<path d="M33.7722 67.4995C33.8461 64.3921 33.9178 61.2826 33.9959 58.1752C34.0635 55.4129 34.0993 52.6483 34.2196 49.886C34.3062 47.9072 34.7029 45.9818 35.3909 44.1299C35.6273 44.2189 35.6548 44.4348 35.64 44.6463C35.5957 45.2873 35.6442 45.9284 35.6442 46.5695C35.6442 52.4859 35.6442 58.4023 35.6463 64.3209C35.6463 64.8907 35.621 65.4561 35.5345 66.017C35.049 66.5023 34.4982 66.9029 33.9769 67.3414C33.9221 67.3859 33.863 67.4216 33.844 67.4972H33.7743L33.7722 67.4995Z" fill="#0DA6C3"/>
<path d="M25.7525 67.5007C25.2797 67.0889 24.8091 66.6771 24.3364 66.2653C24.1506 65.9916 24.0916 65.6844 24.0916 65.3549C24.0916 58.9756 24.0916 52.5962 24.0916 46.219C24.0916 45.8963 24.1739 45.5846 24.1739 45.2597C24.1739 45.1417 24.2076 45.0371 24.1274 44.9258C24.0641 44.839 24.0894 44.7321 24.176 44.6631C24.2731 44.5874 24.349 44.623 24.406 44.7254C24.8935 46.1723 25.1911 47.6681 25.3241 49.1928C25.4634 50.791 25.4359 52.3958 25.4802 53.9985C25.5647 57.068 25.6427 60.1375 25.7229 63.207C25.7588 64.6382 25.7905 66.0672 25.8242 67.4985H25.7546L25.7525 67.5007Z" fill="#06C0E1"/>
<path d="M30.191 0.0690025C30.0011 0.0445177 29.7984 0.146908 29.6212 0H30.1847C30.1804 0.0244847 30.1847 0.0467436 30.191 0.0690025Z" fill="#47C7DD"/>
<path d="M33.4222 31.7502C32.8355 32.0463 32.2487 32.3445 31.6641 32.6406C31.4953 32.5782 31.489 32.4313 31.4911 32.2777C31.4911 31.8815 31.4784 31.4876 31.4784 31.0936C31.4784 21.2151 31.4784 11.3344 31.4826 1.45591C31.4826 1.09754 31.4404 0.743622 31.4552 0.385254C32.0862 0.565551 32.6983 0.801495 33.2829 1.11534C33.4032 1.31345 33.3188 1.52713 33.3188 1.73191C33.3335 11.4101 33.3251 21.086 33.3188 30.7641C33.3188 31.1025 33.4137 31.4186 33.4222 31.7502Z" fill="#0BACCA"/>
<path d="M35.9611 30.5848C35.4229 30.8252 34.8848 31.0656 34.3466 31.306C34.2537 31.3216 34.2537 31.2504 34.2664 31.1925C34.3361 30.8497 34.2917 30.5025 34.2917 30.1574C34.2938 21.1048 34.2938 12.0543 34.2917 3.00163C34.2917 2.68111 34.3234 2.36058 34.3149 2.04005C34.3107 1.89314 34.3508 1.77295 34.4796 1.69727C35.0494 1.97773 35.6255 2.24483 36.1616 2.5943C36.0582 3.24426 36.0687 3.89867 36.0687 4.55308C36.0687 12.7132 36.0687 20.871 36.0687 29.0311C36.0687 29.3762 36.0582 29.7234 36.1046 30.0684C36.13 30.2598 36.0962 30.4379 35.9632 30.5826L35.9611 30.5848Z" fill="#0DA5C1"/>
<path d="M35.9607 30.5859C36.0726 30.2699 35.9523 29.956 35.9523 29.6422C35.9544 20.9301 35.9523 12.2179 35.9628 3.50582C35.9628 3.2031 35.8784 2.84696 36.1591 2.59766C36.7099 2.90038 37.2671 3.19197 37.7842 3.55924C37.5541 12.0465 37.7483 20.5383 37.6808 29.0256C37.6786 29.2972 37.7441 29.5643 37.7187 29.8358C37.132 30.0851 36.5453 30.3366 35.9607 30.5859Z" fill="#0FA0BC"/>
<path d="M31.453 0.382741C31.6092 0.536328 31.5923 0.734431 31.5923 0.932535C31.5923 7.97524 31.5923 15.0157 31.5923 22.0584C31.5923 25.2704 31.586 28.4823 31.6029 31.6943C31.6029 32.0059 31.5079 32.3353 31.6641 32.6381C31.1977 32.9118 30.7313 33.1834 30.2669 33.4572C30.383 33.1233 30.2543 32.7894 30.2543 32.4555C30.2564 21.9605 30.2543 11.4677 30.2648 0.972601C30.2648 0.676558 30.172 0.380516 30.2564 0.0844727C30.6637 0.142346 31.0668 0.229155 31.453 0.380516V0.382741Z" fill="#0BB0CF"/>
<path d="M35.5345 66.0171C35.3172 65.8791 35.4607 65.6699 35.4818 65.5207C35.5134 65.3004 35.5303 65.0822 35.5303 64.8619C35.5303 58.6605 35.5366 52.4592 35.5219 46.2579C35.5219 45.7081 35.5282 45.1583 35.5324 44.6085C35.5324 44.4305 35.5409 44.2546 35.3889 44.13C35.8511 42.6787 36.4821 41.3164 37.282 40.041C37.3981 40.1056 37.396 40.2191 37.377 40.3304C37.3031 40.7466 37.3327 41.1695 37.3327 41.588C37.3327 48.8689 37.3305 56.1475 37.3327 63.4284C37.3327 63.7467 37.2651 64.0695 37.3601 64.3855C36.7734 64.9598 36.1656 65.5029 35.5303 66.0171H35.5345Z" fill="#0EA1BE"/>
<path d="M37.3643 64.3854C37.2735 64.3208 37.0751 64.3431 37.2081 64.1116C37.2609 64.0203 37.2208 63.8689 37.2208 63.7465C37.2208 56.1206 37.2229 48.4925 37.2123 40.8666C37.2123 40.584 37.3495 40.3235 37.2862 40.0408C37.6639 39.3241 38.1219 38.6652 38.6263 38.042C38.7952 38.2312 38.8564 38.4649 38.8711 38.7187C38.8817 38.9279 38.8817 39.1394 38.8817 39.3486C38.8817 44.2878 38.8732 49.2293 38.8859 54.1685C38.8922 56.4523 38.8711 58.7361 38.8796 61.0198C38.8817 61.6253 38.869 62.2307 38.9851 62.8272C38.4448 63.3459 37.9067 63.8667 37.3664 64.3854H37.3643Z" fill="#0F9DB8"/>
<path d="M34.4772 1.70092C34.454 1.99918 34.4076 2.29968 34.4076 2.59795C34.4033 11.9177 34.4055 21.2397 34.4033 30.5595C34.4033 30.811 34.4835 31.0693 34.3442 31.3074C34.0636 31.5211 33.7174 31.5768 33.4199 31.7481C33.2405 31.53 33.2046 31.2763 33.2046 30.9936C33.2088 21.3844 33.2088 11.773 33.2088 2.1639C33.2088 1.81221 33.1603 1.45607 33.2785 1.11328C33.6731 1.32029 34.1121 1.42491 34.4772 1.70092Z" fill="#0DA8C5"/>
<path d="M40.3822 28.78C39.8799 29.0115 39.3671 29.2119 38.8437 29.3788C38.6516 29.3632 38.6453 29.194 38.6199 29.056C38.5756 28.8134 38.582 28.5641 38.582 28.317C38.582 20.7223 38.582 13.1276 38.5798 5.53288C38.5798 5.06099 38.6706 4.60691 38.7656 4.15283C39.2299 4.38878 39.6688 4.67592 40.1015 4.96973C40.2049 5.13222 40.2134 5.31697 40.2134 5.50394C40.2134 13.043 40.2197 20.5821 40.2049 28.1212C40.2049 28.3682 40.2492 28.5819 40.3801 28.7823L40.3822 28.78Z" fill="#1099B5"/>
<path d="M40.3822 28.7813C40.1184 28.808 40.053 28.5921 40.0762 28.414C40.1269 28.0067 40.0994 27.6016 40.0994 27.1964C40.1036 19.7865 40.1036 12.3787 40.1036 4.96875C40.5701 5.2737 41.0745 5.50741 41.5156 5.85688C41.6 6.02159 41.6485 6.19521 41.6464 6.38664C41.5936 10.4979 41.6337 14.6113 41.6253 18.7225C41.619 21.4514 41.6211 24.1804 41.6253 26.9093C41.6253 27.3144 41.562 27.7218 41.6443 28.1269C41.6591 28.2003 41.6253 28.2715 41.5789 28.3316C41.1969 28.5298 40.7853 28.6433 40.3801 28.779L40.3822 28.7813Z" fill="#1195B0"/>
<path d="M41.5812 28.3322C41.406 27.5977 41.5178 26.8542 41.5178 26.1152C41.5073 19.7047 41.5115 13.2941 41.5115 6.88356C41.5115 6.54077 41.5157 6.20021 41.5178 5.85742C42.056 6.14011 42.5731 6.46064 43.0669 6.82346C42.9762 7.00153 42.953 7.19073 42.953 7.39106C42.9614 8.95363 42.9551 10.514 42.9572 12.0765C42.9572 12.4349 42.8897 12.8178 43.2674 13.0404C43.0416 13.0804 42.6913 12.9268 42.6174 13.1205C42.5393 13.3186 42.9002 13.4499 43.0289 13.648C43.0606 13.697 43.088 13.7504 43.1155 13.8016C43.2062 14.1689 43.0923 14.5339 43.0944 14.9012C43.1028 18.5205 43.1007 22.1376 43.0986 25.7568C43.0986 26.4469 43.1324 27.1391 43.0015 27.8225C42.5393 28.025 42.0666 28.1942 41.5833 28.3344L41.5812 28.3322Z" fill="#1292AC"/>
<path d="M38.7678 4.15166C38.8122 4.3275 38.8459 4.48776 38.7763 4.68142C38.6539 5.01975 38.6982 5.38702 38.6982 5.74316C38.6982 13.3268 38.6982 20.9126 38.7003 28.4962C38.7003 28.7944 38.6497 29.1105 38.8459 29.3776C38.4914 29.5869 38.0925 29.6759 37.721 29.8362C37.5986 29.7226 37.5691 29.5802 37.5691 29.4088C37.5733 21.0951 37.5691 12.7814 37.5881 4.46773C37.5881 4.18059 37.5121 3.80887 37.7865 3.55957C38.1241 3.73987 38.4597 3.92016 38.7699 4.15166H38.7678Z" fill="#0F9DB8"/>
<path d="M38.9808 62.8282C38.8943 62.7792 38.7339 62.8282 38.8394 62.59C38.9111 62.432 38.7571 62.2072 38.7592 61.9913C38.7697 60.2729 38.7655 58.5567 38.7655 56.8383C38.7655 50.8685 38.7634 44.9009 38.774 38.9311C38.774 38.615 38.6051 38.3501 38.622 38.0407C39.0209 37.4576 39.4789 36.93 39.9664 36.4292C40.1711 36.4492 40.1542 36.6073 40.1521 36.7586C40.1204 40.2978 40.1479 43.8369 40.1373 47.3783C40.1373 47.9304 40.226 48.4757 40.2302 49.0277C40.2302 49.0611 40.2724 49.0834 40.2998 49.1056C39.9326 50.6148 39.6477 52.1395 39.4578 53.6865C39.424 53.9647 39.424 54.2452 39.386 54.5212C39.3396 54.6481 39.3733 54.7816 39.3628 54.913C39.3586 55.0265 39.3754 55.1422 39.348 55.2557C39.3375 55.3336 39.3269 55.4093 39.3163 55.4872C39.2573 55.603 39.3353 55.7432 39.2594 55.8567C39.2678 55.948 39.2277 56.0548 39.3227 56.1238C39.253 56.3242 39.329 56.5401 39.2741 56.7426C39.2741 57.3347 39.2699 57.929 39.2678 58.5211C39.3586 58.6346 39.2636 58.7415 39.2889 58.8394C39.2995 58.7148 39.329 58.5768 39.3923 58.4499C39.4978 57.9112 39.6055 57.3703 39.711 56.8317C40.017 57.0832 39.9347 57.4683 39.9305 57.7754C39.9157 58.9552 39.9917 60.1304 40.0381 61.3079C40.0445 61.4682 40.0297 61.6284 40.0234 61.7865C39.6772 62.1337 39.3311 62.4832 38.9829 62.8304L38.9808 62.8282Z" fill="#1099B4"/>
<path d="M55.6475 13.2041C56.116 13.3288 56.5824 13.4512 57.051 13.5758C56.9792 13.7873 56.956 14.0054 56.956 14.2302C56.956 20.0376 56.9518 25.8427 56.9665 31.65C56.9665 32.1019 56.9201 32.5537 56.9665 33.0034C56.7407 33.7334 56.5212 34.4658 56.2785 35.1914C56.2363 35.3183 56.2532 35.5743 55.9894 35.4941C55.5757 35.4696 55.5272 35.4207 55.4934 35.0022C55.447 34.4346 55.4702 33.867 55.4681 33.2994C55.4639 31.7947 55.4787 30.2922 55.4027 28.7898C55.3795 28.3223 55.4723 27.8571 55.4723 27.3852C55.4639 23.0024 55.4681 18.6197 55.466 14.2369C55.466 13.9386 55.4808 13.6448 55.5314 13.3532C55.5441 13.2842 55.5441 13.1997 55.6475 13.2063V13.2041Z" fill="#1C6C81"/>
<path d="M55.6475 13.2049C55.4913 18.1219 55.6285 23.0389 55.5715 27.9559C55.5652 28.4322 55.5504 28.9041 55.5631 29.3827C55.6074 30.9074 55.5778 32.4366 55.58 33.9635C55.58 34.3664 55.5842 34.7693 55.5905 35.1722C55.5947 35.4504 55.8269 35.4282 55.9915 35.4949C55.4069 35.5795 54.8244 35.6663 54.2398 35.7509C54.0583 35.8466 53.9823 35.7309 53.9317 35.5751C53.8599 35.3503 53.8494 35.1165 53.8494 34.8806C53.8494 33.4516 53.8494 32.0226 53.8494 30.5935C53.8494 30.0104 53.8578 30.0081 54.4171 30.0037C54.4994 30.0037 54.5817 30.0126 54.6598 29.9859C55.1241 29.839 55.2528 29.6609 55.2359 29.1623C55.1769 27.3994 54.8919 25.6788 54.4213 23.9893C54.3981 23.9092 54.3896 23.8224 54.3749 23.74C54.3158 23.1368 54.339 22.5314 54.3411 21.9259C54.3517 19.1948 54.3453 16.4636 54.3453 13.7302C54.3453 13.521 54.3474 13.3118 54.2883 13.107C54.1997 12.7931 54.206 12.7887 54.5289 12.8688C54.5965 12.8844 54.6703 12.8532 54.7315 12.9089C55.0376 13.0068 55.3415 13.107 55.6475 13.2049Z" fill="#1B6F85"/>
<path d="M56.9665 33.0054C56.8779 32.9475 56.8441 32.8651 56.8441 32.7561C56.8441 28.5246 56.8441 24.291 56.8441 20.0596C56.8441 18.0207 56.8441 15.9818 56.8462 13.9429C56.8462 13.7893 56.766 13.5645 57.0488 13.5756C57.4202 13.7047 57.8487 13.5934 58.1863 13.8672C58.1462 14.1365 58.1505 14.4081 58.1505 14.6796C58.1505 18.3857 58.1526 22.0941 58.1505 25.8002C58.1505 26.2698 58.1906 26.7373 58.2138 27.2069C58.2201 27.3204 58.237 27.4273 58.3088 27.5185C58.0682 28.834 57.7368 30.1273 57.3928 31.4183C57.2514 31.9481 57.11 32.4756 56.9665 33.0054Z" fill="#1C697D"/>
<path d="M41.2897 35.1332C41.7519 34.6769 42.2436 34.2651 42.7775 33.9067C42.9717 33.9757 42.9949 34.136 42.9886 34.323C42.9126 36.8649 42.9717 39.4069 42.9569 41.9489C42.9569 42.2316 43.0118 42.5142 42.9865 42.7992C42.499 43.6183 42.0178 44.4419 41.6273 45.3211C41.5429 45.3701 41.5345 45.4635 41.5092 45.5459C41.4648 45.6705 41.4205 45.7952 41.3741 45.9176C41.2263 45.9354 41.1841 45.8286 41.1926 45.7128C41.2179 45.3255 41.1799 44.9382 41.182 44.5509C41.1968 41.5638 41.1841 38.5766 41.1905 35.5917C41.1905 35.4292 41.1841 35.2712 41.2876 35.1332H41.2897Z" fill="#1292AC"/>
<path d="M41.2898 35.1333C41.2919 36.6469 41.2961 38.1583 41.2983 39.6719C41.2983 41.3413 41.2983 43.0085 41.2983 44.6779C41.2983 44.8626 41.2138 45.1275 41.2666 45.2099C41.4122 45.4481 41.102 45.7352 41.3785 45.9177C40.9606 46.9572 40.5913 48.0167 40.3021 49.1052C40.2008 49.1141 40.1016 49.123 39.9919 49.1319C40.2156 48.8158 40.0932 48.4708 40.0784 48.1525C40.0679 47.9366 40.0341 47.714 40.0341 47.4936C40.0341 44.0101 40.0362 40.5266 40.0235 37.0431C40.0235 36.845 40.1945 36.6113 39.9666 36.431C40.3697 35.9547 40.8107 35.5228 41.2898 35.1333Z" fill="#1196B1"/>
<path d="M58.3086 27.5188C58.163 27.5032 58.1187 27.4052 58.1102 27.265C58.0912 26.9267 58.0448 26.5883 58.0448 26.2522C58.0406 22.2924 58.0385 18.3348 58.0532 14.3749C58.0532 14.2191 57.838 13.9409 58.1883 13.8696C59.0135 14.139 59.5517 15.0961 59.5854 15.9731C59.6023 16.3782 59.5854 16.7833 59.5812 17.1884C59.5095 17.4132 59.5854 17.6492 59.5369 17.874C59.501 18.4371 59.4208 18.9958 59.4419 19.5634C59.3807 19.6881 59.4356 19.8261 59.3976 19.953C59.3892 20.0977 59.3828 20.2423 59.3744 20.387C59.3068 20.5072 59.3702 20.6452 59.3258 20.7699C59.3195 20.8901 59.3111 21.0103 59.3047 21.1305C59.2351 21.2507 59.3047 21.3909 59.252 21.5133C59.2077 21.8071 59.138 22.0965 59.1654 22.397C59.0895 22.5127 59.1697 22.6552 59.1085 22.7754C59.1042 22.8466 59.0979 22.9156 59.0937 22.9869C59.0304 23.0803 59.1064 23.2028 59.0388 23.2963C58.8024 24.6207 58.6632 25.9629 58.3276 27.2695C58.3065 27.3518 58.3149 27.4409 58.3107 27.5277L58.3086 27.5188Z" fill="#1D657A"/>
<path d="M44.162 57.1107C43.6323 57.7784 43.1173 58.4595 42.5032 59.0472C42.3238 59.0004 42.4082 58.8469 42.4061 58.7467C42.3702 56.5564 42.3956 54.3639 42.3892 52.1714C42.3892 51.5215 42.3892 50.8715 42.3555 50.2215C42.6847 49.5694 43.1237 48.9995 43.5817 48.452C43.7547 48.245 43.8687 47.9801 44.1093 47.8398C44.1536 47.8844 44.1747 47.9422 44.1726 48.0068C44.1029 50.6111 44.1599 53.2176 44.1536 55.8219C44.1536 56.2515 44.2317 56.6811 44.1599 57.1129L44.162 57.1107Z" fill="#138FA8"/>
<path d="M42.9888 42.7993C42.8115 42.5545 42.8558 42.2584 42.8558 41.9891C42.8432 39.5362 42.8495 37.0832 42.8453 34.6325C42.8453 34.3899 43.0247 34.125 42.7798 33.9069C43.3539 33.4439 43.9554 33.0321 44.6054 32.6982C44.5083 33.0722 44.5759 33.4528 44.5759 33.829C44.5759 35.7076 44.5759 37.5863 44.5759 39.4649C44.5759 39.8856 44.5822 40.3041 44.6138 40.7248C44.5864 40.7693 44.5611 40.8138 44.5336 40.8583C44.4935 40.9674 44.4155 41.0364 44.3205 41.0921C43.8119 41.604 43.4256 42.225 42.9909 42.8015L42.9888 42.7993Z" fill="#138EA7"/>
<path d="M44.1621 57.1114C44.0967 57.0669 44.0903 57.0112 44.0861 56.9289C44.0228 55.4531 44.0439 53.9773 44.0418 52.5038C44.0418 51.6268 44.0291 50.7476 44.046 49.8706C44.0587 49.1939 43.9532 48.5106 44.1114 47.8406C44.5019 47.3576 44.9535 46.9458 45.4495 46.5874C45.5824 47.1016 45.6204 47.6313 45.6225 48.1589C45.6331 50.1733 45.6289 52.1855 45.6225 54.1999C45.6225 54.5561 45.707 54.9144 45.5972 55.2661C45.4094 55.6623 45.0865 55.9473 44.8396 56.2967C44.6348 56.5861 44.3879 56.8443 44.16 57.1158L44.1621 57.1114Z" fill="#148BA4"/>
<path d="M42.3554 50.2222C42.4082 50.309 42.6889 50.3112 42.4399 50.5138C42.3048 50.6251 42.5201 50.674 42.5179 50.812C42.4947 53.3139 42.4968 55.8158 42.4926 58.3177C42.4926 58.5603 42.4968 58.8052 42.499 59.0478C42.1676 59.5598 41.7223 59.9582 41.3023 60.3833C41.2242 60.4034 41.1757 60.4546 41.1567 60.5369C41.1018 60.6059 41.0469 60.6749 40.9921 60.7439C40.7874 60.6571 40.8359 60.4568 40.8359 60.2987C40.8275 59.0189 40.8232 57.7412 40.8359 56.4613C40.8465 55.4419 40.7916 54.4246 40.743 53.4074C41.0554 52.6528 41.3867 51.9094 41.7645 51.1904C41.9397 50.8565 42.0874 50.5004 42.347 50.2222H42.3554Z" fill="#1293AE"/>
<path d="M45.5996 55.2651C45.5553 55.2629 45.4371 55.3051 45.4793 55.2384C45.665 54.9512 45.5131 54.6596 45.5131 54.377C45.5257 52.2535 45.5215 50.1277 45.5173 48.002C45.5173 47.5301 45.378 47.0649 45.4497 46.5886C45.9752 46.0722 46.5662 45.6582 47.2056 45.3198C47.2922 45.6136 47.1677 45.8986 47.1698 46.1924C47.1845 47.9352 47.174 49.6759 47.1782 51.4188C47.1782 52.0375 47.1761 52.6541 47.0748 53.264C46.6316 53.9718 46.142 54.6396 45.5996 55.2651Z" fill="#15869F"/>
<path d="M47.423 31.3184C47.9949 31.0714 48.5795 30.8733 49.181 30.7241C49.4976 30.8599 49.4934 31.1559 49.4934 31.4409C49.4976 32.7853 49.4934 34.1297 49.4955 35.4719C49.4955 36.0885 49.5039 36.7029 49.3942 37.3127C48.8307 37.6088 48.2651 37.9048 47.7016 38.2009C47.3977 38.1029 47.385 37.8358 47.3829 37.5732C47.3744 36.5849 47.3808 35.5966 47.3787 34.6105C47.3787 33.6601 47.3787 32.7096 47.3787 31.7569C47.3787 31.6078 47.3702 31.4609 47.423 31.3184Z" fill="#168199"/>
<path d="M54.7313 12.9083C54.5814 12.9818 54.4443 12.8994 54.2775 12.8661C54.4928 13.0486 54.4548 13.2845 54.4548 13.5138C54.4548 16.3852 54.4696 19.2566 54.4421 22.1302C54.4379 22.6644 54.5477 23.212 54.3767 23.7417C54.0116 22.6844 53.6022 21.6472 53.1104 20.6478C53.026 20.4786 53.0134 20.2961 53.0134 20.1091C53.0028 17.7118 53.007 15.3145 53.0134 12.915C53.0134 12.6858 52.9648 12.383 53.3363 12.3853C53.8153 12.521 54.2775 12.708 54.7355 12.9083H54.7313Z" fill="#1A7288"/>
<path d="M53.3344 12.3847C53.1656 12.4426 53.115 12.5628 53.115 12.752C53.1255 15.2316 53.1276 17.709 53.1297 20.1887C53.1297 20.3423 53.1171 20.4958 53.1086 20.6472C52.5789 19.7301 52.007 18.8465 51.3612 18.0162C51.2894 17.8916 51.3126 17.7535 51.3126 17.62C51.3084 15.6723 51.3401 13.7225 51.2936 11.7748C51.2915 11.6747 51.2873 11.5767 51.359 11.4966C52.0175 11.7904 52.6929 12.0441 53.3323 12.3869L53.3344 12.3847Z" fill="#19778D"/>
<path d="M47.4228 31.3184C47.5156 31.4631 47.4903 31.6278 47.4903 31.7859C47.4903 33.7001 47.4945 35.6166 47.4861 37.5309C47.4861 37.7935 47.5283 38.0139 47.7034 38.2009C47.0471 38.6727 46.3907 39.1446 45.7344 39.6165C45.6753 37.7957 45.7006 35.975 45.6964 34.152C45.6964 33.6823 45.6985 33.2149 45.6922 32.7452C45.6879 32.4291 45.7618 32.1442 46.0066 31.935C46.4625 31.6879 46.9352 31.4787 47.4249 31.314L47.4228 31.3184Z" fill="#15869E"/>
<path d="M47.0748 53.2608C46.9777 53.1873 46.9482 53.0649 46.9714 52.9648C47.1698 52.1612 47.0474 51.3443 47.06 50.5363C47.0832 49.0939 47.0685 47.6493 47.0664 46.2047C47.0664 45.8998 47.0474 45.5926 47.2057 45.3144C47.6784 44.9404 48.225 44.7089 48.7547 44.4463C48.7969 44.4975 48.8223 44.5709 48.7864 44.6155C48.569 44.8826 48.645 45.192 48.645 45.4969C48.6492 46.9994 48.645 48.5019 48.645 50.0043C48.645 50.3471 48.5564 50.6854 48.5986 51.0305C48.1343 51.8073 47.6467 52.5663 47.0727 53.2586L47.0748 53.2608Z" fill="#16839B"/>
<path d="M49.394 37.3129C49.2843 37.0079 49.3814 36.703 49.3835 36.398C49.3962 34.6841 49.3877 32.9702 49.3919 31.2562C49.3919 31.0403 49.2949 30.8823 49.1809 30.7243C49.8246 30.5239 50.4788 30.3659 51.1457 30.2769C51.0782 32.1577 51.1289 34.0386 51.1141 35.9195C51.1141 36.1465 51.2344 36.3446 51.2196 36.5694C50.6118 36.8165 50.004 37.0658 49.3962 37.3129H49.394Z" fill="#187C93"/>
<path d="M46.0046 31.936C45.9117 32.2566 45.7872 32.5571 45.7914 32.9154C45.8125 34.7117 45.802 36.5102 45.802 38.3065C45.802 38.5647 45.7809 38.8229 45.8695 39.0722C45.9455 39.2881 45.7682 39.4328 45.7323 39.6153C45.3588 39.9848 44.9831 40.3521 44.6095 40.7216C44.4829 40.7105 44.4829 40.6348 44.4829 40.5168C44.4829 38.2219 44.4724 35.927 44.466 33.6299C44.466 33.532 44.5019 33.4051 44.4597 33.3383C44.274 33.0557 44.4681 32.8865 44.6053 32.6951C45.0464 32.3901 45.5192 32.1475 46.0067 31.936H46.0046Z" fill="#1489A3"/>
<path d="M51.2175 36.5699C51.055 36.3918 51.0022 36.1781 51.0043 35.931C51.0106 34.2215 51.0107 32.5121 51.0128 30.8026C51.0128 30.6134 50.9072 30.3975 51.1457 30.275C51.7029 30.1571 52.2664 30.0836 52.8341 30.0547C52.6294 30.4798 52.6631 30.9384 52.6653 31.3924C52.6653 32.59 52.6653 33.7897 52.6653 34.9872C52.6653 35.2588 52.6526 35.5304 52.7391 35.7952C52.775 35.9021 52.7792 36.0156 52.6969 36.1091C52.2052 36.2605 51.7134 36.414 51.2196 36.5654L51.2175 36.5699Z" fill="#19788E"/>
<path d="M48.6026 51.0328C48.438 50.9037 48.4401 50.6499 48.4844 50.5408C48.5688 50.3272 48.5414 50.1291 48.5414 49.9265C48.5477 48.4819 48.5477 47.0351 48.5435 45.5905C48.5435 45.192 48.4464 44.7802 48.7567 44.4486C49.2379 44.2193 49.7085 43.9656 50.2319 43.8521C50.3079 44.1548 50.2593 44.4642 50.2614 44.7691C50.2699 45.5326 50.2636 46.2961 50.2636 47.0596C50.2636 47.2799 50.2488 47.5025 50.3839 47.6984C50.4535 47.7985 50.4239 47.9076 50.367 48.01C50.3079 48.1168 50.2509 48.2259 50.2847 48.3572C49.7634 49.2765 49.1957 50.1624 48.6026 51.0305V51.0328Z" fill="#177E96"/>
<path d="M51.3588 11.4949C51.4643 11.9557 51.4263 12.4231 51.4284 12.8883C51.4305 14.4041 51.4284 15.9177 51.4326 17.4336C51.4326 17.6317 51.4178 17.8253 51.363 18.0145L49.816 16.3852C49.7569 16.0758 49.854 15.7731 49.8498 15.4659C49.8371 14.2929 49.8434 13.1198 49.8455 11.9468C49.8455 11.5639 49.8878 11.1877 50.0228 10.8271C50.4681 11.0497 50.9134 11.2723 51.3588 11.4949Z" fill="#187B92"/>
<path d="M48.4697 15.294C48.0012 14.9957 47.5327 14.6974 47.0641 14.3992C46.8805 14.2812 46.7813 14.1565 46.7729 13.8828C46.7286 12.4515 46.775 11.0203 46.7539 9.59124C46.7518 9.4243 46.737 9.22397 46.9248 9.12158C47.4883 9.44211 48.0518 9.76264 48.6153 10.0809C48.5372 11.5211 48.5942 12.9635 48.5773 14.4058C48.5731 14.7041 48.6829 15.0202 48.4697 15.2917V15.294Z" fill="#16839B"/>
<path d="M52.695 36.1125C52.3868 34.285 52.6338 32.442 52.5536 30.6079C52.543 30.3608 52.6359 30.1827 52.8321 30.0559C53.44 29.9958 54.0499 29.9535 54.6598 29.9869C54.6049 30.0047 54.5522 30.0358 54.4973 30.0403C54.1399 30.064 53.9612 30.2703 53.9612 30.6591C53.9612 32.1037 53.9655 33.5483 53.957 34.9929C53.957 35.2066 54.0224 35.4047 54.0351 35.6117C54.0435 35.7497 54.1427 35.7497 54.2398 35.7519C53.7249 35.8721 53.2099 35.9923 52.695 36.1125Z" fill="#1A748A"/>
<path d="M48.4694 15.2953C48.4715 13.7928 48.4778 12.2903 48.4757 10.7856C48.4757 10.5386 48.385 10.2759 48.6171 10.0845C49.0983 10.3071 49.5689 10.5475 50.0227 10.8279C50.1535 11.1752 49.9383 11.4912 49.9446 11.834C49.9636 13.1005 49.9488 14.3693 49.9552 15.6358C49.9552 15.8985 49.9277 16.15 49.8138 16.386C49.3663 16.0231 48.9168 15.6581 48.4694 15.2953Z" fill="#177E96"/>
<path d="M46.9269 9.12354C46.9311 9.39287 46.8425 9.64662 46.8509 9.92041C46.8889 11.2493 46.8319 12.5781 46.8742 13.9092C46.8805 14.1407 46.9586 14.2564 47.0662 14.4011C46.4584 14.1184 45.8506 13.838 45.2449 13.5553C45.3314 12.7362 45.2533 11.917 45.2702 11.0979C45.285 10.3745 45.2596 9.64885 45.2829 8.92544C45.2892 8.70062 45.2385 8.42239 45.5277 8.30664C45.9941 8.58042 46.4626 8.85198 46.929 9.12577L46.9269 9.12354Z" fill="#1587A0"/>
<path d="M43.2653 13.0382C42.8516 13.0315 42.8368 12.7622 42.8389 12.4083C42.8537 10.6365 42.8516 8.86465 42.8347 7.09285C42.8347 6.87248 42.9191 6.848 43.0648 6.82129C43.3919 7.01494 43.7485 7.15962 44.044 7.41115C44.2044 7.52244 44.2086 7.70274 44.2107 7.87413C44.2318 9.50571 44.2234 11.1351 44.215 12.7666C44.215 12.9158 44.1939 13.0627 44.1094 13.1918C43.8266 13.1406 43.5459 13.0894 43.2631 13.0382H43.2653Z" fill="#138EA8"/>
<path d="M50.2846 48.3598C50.2529 48.3242 50.1875 48.2663 50.1939 48.2574C50.4619 47.8367 50.0904 47.4427 50.1495 47.0176C50.215 46.5457 50.1643 46.0582 50.1643 45.5752C50.1643 45.1056 50.1643 44.6381 50.1643 44.1685C50.1643 44.0549 50.1749 43.9481 50.234 43.8502C51.1605 43.4161 52.1481 43.2047 53.1865 42.9331C52.2874 44.8318 51.3272 46.6192 50.2867 48.3576L50.2846 48.3598Z" fill="#187A91"/>
<path d="M40.7516 53.4082C40.8276 53.4549 40.8487 53.5173 40.8592 53.6174C40.9795 54.8172 40.9458 56.0192 40.9479 57.2189C40.9479 58.274 40.9479 59.3313 40.9479 60.3864C40.9479 60.5066 40.912 60.6334 40.9964 60.7425C40.7052 61.1254 40.3675 61.4592 40.0214 61.7842C39.8293 61.5505 39.9264 61.2522 39.9116 61.0029C39.8631 60.117 39.8736 59.2289 39.8167 58.3408C39.7913 57.9446 39.8378 57.5372 39.7934 57.1366C39.7808 57.0297 39.7934 56.914 39.709 56.8294C39.9728 55.6608 40.3422 54.5278 40.7495 53.4104L40.7516 53.4082Z" fill="#1197B2"/>
<path d="M44.1116 13.1913C44.1116 11.5063 44.1116 9.82128 44.1116 8.13406C44.1116 7.89144 44.118 7.64659 44.0441 7.41064C44.5527 7.67775 45.0445 7.98047 45.5235 8.30545C45.4117 8.41675 45.3948 8.58369 45.3927 8.71279C45.38 10.1329 45.3674 11.5508 45.4054 12.9687C45.4117 13.218 45.3948 13.3871 45.2407 13.5541C44.863 13.4339 44.4873 13.3115 44.1095 13.1913H44.1116Z" fill="#148BA4"/>
<path d="M39.3924 58.4478C39.4304 58.6147 39.3164 58.746 39.3291 59.0042C39.2341 58.7772 39.2615 58.6481 39.27 58.519C39.3122 58.4945 39.3523 58.4722 39.3945 58.4478H39.3924Z" fill="#B2DEE6"/>
<path d="M59.537 17.8716C59.5243 17.6401 59.5285 17.4108 59.5813 17.186C59.5708 17.4153 59.6404 17.649 59.537 17.8716Z" fill="#FCFCFC"/>
<path d="M39.2741 56.7428C39.2805 56.5358 39.2298 56.3244 39.3227 56.124C39.31 56.331 39.386 56.5447 39.2741 56.7428Z" fill="#FCFCFC"/>
<path d="M41.5116 45.5456C41.4399 45.4054 41.4905 45.3386 41.6298 45.3208C41.5939 45.3987 41.5918 45.4944 41.5116 45.5456Z" fill="#1196B1"/>
<path d="M59.3976 19.9503C59.385 19.8167 59.3934 19.6876 59.4419 19.563C59.4377 19.6943 59.4863 19.8323 59.3976 19.9503Z" fill="#FCFCFC"/>
<path d="M59.3237 20.7647C59.3131 20.6334 59.3174 20.5043 59.3722 20.3818C59.3659 20.5109 59.4166 20.6467 59.3237 20.7647Z" fill="#FCFCFC"/>
<path d="M59.2499 21.5083C59.2415 21.377 59.2478 21.2479 59.3027 21.1255C59.2963 21.2546 59.3491 21.3926 59.2499 21.5083Z" fill="#FCFCFC"/>
<path d="M59.1064 22.772C59.1001 22.6429 59.1001 22.5115 59.1634 22.3936C59.1529 22.5204 59.2077 22.6584 59.1064 22.772Z" fill="#FCFCFC"/>
<path d="M59.0369 23.2899C59.0285 23.1808 59.0306 23.0762 59.0918 22.9805C59.0918 23.0873 59.1994 23.2142 59.0369 23.2899Z" fill="#FCFCFC"/>
<path d="M44.3184 41.0926C44.3901 41.0147 44.4598 40.9368 44.5315 40.8589C44.5337 41.0102 44.464 41.0882 44.3184 41.0926Z" fill="#FCFCFC"/>
<path d="M39.3397 54.913C39.3397 54.7816 39.2869 54.6414 39.3861 54.5234C39.3861 54.637 39.3882 54.7505 39.3904 54.864C39.384 54.8929 39.3671 54.9085 39.3397 54.913Z" fill="#0F9DB8"/>
<path d="M39.3396 54.9132C39.3565 54.8976 39.3733 54.8798 39.3902 54.8643C39.3902 54.9956 39.4388 55.1358 39.348 55.2582C39.3459 55.1447 39.3417 55.029 39.3396 54.9155V54.9132Z" fill="#FCFCFC"/>
<path d="M39.2595 55.8558C39.2743 55.7312 39.2173 55.5976 39.3165 55.4863C39.3038 55.611 39.3671 55.7468 39.2595 55.8558Z" fill="#0F9DB8"/>
<path d="M41.1611 60.5349C41.1485 60.4792 41.0915 60.4258 41.1463 60.368C41.2012 60.3101 41.2519 60.368 41.3046 60.3835C41.2561 60.4347 41.2076 60.4859 41.159 60.5371L41.1611 60.5349Z" fill="#1197B2"/>
<path d="M2.18284 31.5254C1.89582 30.2678 1.58769 29.0146 1.32388 27.7503C0.642199 24.4627 0.226436 21.1372 0.0660406 17.7761C0.040715 17.233 0.0111684 16.6899 0.000616084 16.1467C-0.0247095 14.9292 0.732949 13.8875 1.87049 13.676C4.55079 13.1774 7.02637 12.0867 9.45552 10.8514C11.6926 9.71393 13.8474 8.41401 15.9938 7.10519C16.0444 7.07403 16.0993 7.05622 16.152 7.03174C16.361 7.03396 16.2871 7.20091 16.2744 7.29884C16.0339 9.10849 16.1795 10.9248 16.1837 12.7367C16.1837 12.8502 16.1879 12.9593 16.1119 13.0528C14.3919 13.4178 12.8133 14.1368 11.3549 15.1562C7.99718 17.5045 5.92048 20.7966 4.93067 24.8833C4.59722 26.2634 4.4115 27.6657 4.35662 29.088C4.32919 29.7558 4.53813 29.9717 5.17971 29.9762C8.98911 30.0029 12.5241 31.0513 15.7722 33.157C15.8713 33.2215 15.96 33.2994 16.055 33.3706C16.0866 33.4886 16.1246 33.6044 16.1183 33.7312C16.0191 35.9126 16.0993 38.0962 16.074 40.2798C16.0697 40.6359 16.0275 40.9898 16.152 41.3415C16.2259 41.5485 16.114 41.6687 15.9009 41.671C13.1277 38.2253 9.4513 36.5648 5.35066 35.7523C4.77661 35.6388 4.19834 35.5476 3.61796 35.4741C3.42169 35.4496 3.34571 35.3717 3.28451 35.1803C2.91095 34.0384 2.57328 32.8876 2.25249 31.7279C2.23349 31.6567 2.20184 31.5899 2.17651 31.5232L2.18284 31.5254Z" fill="#00DAFE"/>
<path d="M23.009 2.83639C23.6042 2.47357 24.2056 2.12411 24.8346 1.83252C24.7734 2.31999 24.881 2.79855 24.881 3.2838C24.881 12.0538 24.881 20.8238 24.881 29.5938C24.881 30.0879 24.8472 30.5776 24.6235 31.0272C24.06 30.7779 23.4965 30.5286 22.933 30.2816C22.8824 30.1658 22.8782 30.0434 22.8803 29.9187C22.9161 21.0664 22.8887 12.2141 22.8929 3.3617C22.8929 3.17695 22.876 2.98775 23.009 2.83639Z" fill="#06C3E4"/>
<path d="M24.6216 31.0253C24.9508 26.3532 24.7144 21.6744 24.7588 16.9978C24.8031 12.3279 24.7693 7.65795 24.7693 2.98804C24.7693 2.96356 24.7693 2.93907 24.7693 2.91459C24.744 2.54954 24.5013 2.17114 24.8347 1.8328C25.2589 1.57015 25.7106 1.36314 26.1643 1.16504C26.3754 1.22291 26.3796 1.40098 26.3733 1.57905C26.3606 1.89958 26.3606 2.22233 26.3606 2.54286C26.3606 11.9962 26.3606 21.4473 26.3585 30.9007C26.3585 31.2034 26.4176 31.5194 26.2466 31.8021C25.7064 31.5439 25.164 31.2857 24.6237 31.0298L24.6216 31.0253Z" fill="#07BFDF"/>
<path d="M16.2597 27.7163C14.9998 27.3023 13.7356 26.8972 12.4778 26.4743C11.6716 26.2027 11.2896 25.5461 11.2959 24.5177C11.3065 22.7415 11.7876 21.0921 12.5179 19.5095C13.4064 17.5863 14.5756 15.8702 15.9769 14.3276C16.1605 14.4189 16.2091 14.5769 16.2112 14.7817C16.2471 18.5724 16.2133 22.3631 16.2281 26.1538C16.2281 26.5945 16.169 27.0441 16.3463 27.4693C16.3864 27.565 16.3695 27.6651 16.2597 27.7163Z" fill="#00DAFE"/>
<path d="M26.2445 31.7999C26.1833 31.5795 26.2487 31.3613 26.2487 31.141C26.2445 21.4294 26.2466 11.7179 26.2382 2.00414C26.2382 1.72591 26.3838 1.42319 26.1643 1.16276C26.6012 0.942396 27.0423 0.735388 27.5108 0.599609C27.6691 0.993591 27.6965 1.40983 27.6965 1.83052C27.6965 5.18048 27.6965 8.53044 27.6965 11.8804C27.6965 18.5046 27.6965 25.1311 27.6944 31.7553C27.6944 31.9957 27.7535 32.2539 27.5825 32.4676C27.1372 32.245 26.6919 32.0224 26.2445 31.7999Z" fill="#08BBDB"/>
<path d="M27.5823 32.4669C27.5823 22.21 27.5823 11.9509 27.5886 1.69401C27.5886 1.32451 27.424 0.97282 27.5106 0.598871C27.9643 0.396316 28.4328 0.249407 28.9182 0.162598C28.8 0.834815 28.8507 1.51594 28.8507 2.19038C28.8486 12.2736 28.8507 22.3569 28.8465 32.4402C28.8465 32.7006 28.8655 32.9543 28.9182 33.2081C28.4729 32.961 28.0276 32.7117 27.5823 32.4647V32.4669Z" fill="#09B8D7"/>
<path d="M21.3879 63.5832C20.911 63.1758 20.4699 62.7284 20.0457 62.261C19.8895 62.0295 19.8663 61.7758 19.8705 61.4953C19.8895 60.1909 19.8705 58.8866 19.8853 57.5822C19.8853 57.4308 19.8325 57.2528 20.0415 57.1927C20.1428 57.7046 20.242 58.2188 20.3433 58.7307C20.4235 58.8153 20.4319 58.7352 20.4382 58.6795C20.4551 58.4993 20.415 58.3167 20.4636 58.1387C20.4572 55.1582 20.1808 52.2111 19.4379 49.3264C19.4189 49.2551 19.4189 49.1795 19.4083 49.1082C19.5603 48.416 19.5075 47.7082 19.5117 47.0115C19.5328 44.051 19.5244 41.0906 19.516 38.1302C19.516 37.7317 19.5919 37.3467 19.6278 36.9549C19.6405 36.8147 19.6848 36.6833 19.8642 36.7056C20.4952 37.3533 21.0524 38.0678 21.542 38.8402C21.5969 39.0428 21.6011 39.2409 21.5716 39.4568C21.5209 39.8463 21.4998 40.2425 21.4998 40.6387C21.504 48.0509 21.5019 55.4609 21.4998 62.8731C21.4998 63.1135 21.5631 63.3717 21.3858 63.5832H21.3879Z" fill="#04CCEE"/>
<path d="M23.0091 2.83572C22.9479 3.05608 23.0133 3.27422 23.0133 3.49458C23.0091 12.1466 23.0091 20.7964 23.007 29.4484C23.007 29.7267 23.0429 30.0116 22.9331 30.2787C22.4625 30.085 21.9919 29.8914 21.5212 29.6977C21.6078 28.8252 21.5571 27.9482 21.5571 27.0734C21.5613 19.7302 21.5592 12.3892 21.5592 5.04603C21.5592 4.74998 21.5592 4.45172 21.5487 4.15567C21.5402 3.9687 21.5487 3.78395 21.6732 3.63036C22.1016 3.33432 22.5533 3.07612 23.0112 2.8335L23.0091 2.83572Z" fill="#05C7E9"/>
<path d="M21.3882 63.5818C21.3882 55.8647 21.3946 48.1475 21.384 40.4304C21.384 40.0787 21.498 39.7359 21.4389 39.3686C21.4262 39.284 21.3714 38.9791 21.5465 38.8389C22.1121 39.5823 22.5722 40.397 22.9901 41.2406C22.9247 41.6123 22.9099 41.9885 22.9099 42.3669C22.9099 49.2493 22.9099 56.1318 22.912 63.0142C22.912 63.5551 22.8571 64.0982 23.0175 64.6324C23.0597 64.7749 23.0956 64.9463 23.0112 65.1021C22.4477 64.6235 21.899 64.1272 21.3882 63.584V63.5818Z" fill="#05C7E9"/>
<path d="M21.6707 3.62939C21.6707 12.0477 21.6707 20.4638 21.6707 28.8821C21.6707 29.1625 21.7952 29.4719 21.5187 29.6967C21.1452 29.5454 20.7737 29.3918 20.4002 29.2404C20.2841 29.1047 20.2398 28.9422 20.2292 28.7663C20.2208 28.6172 20.2208 28.4703 20.2208 28.3211C20.2208 20.6641 20.2208 13.0093 20.2166 5.35223C20.2166 5.04061 20.2714 4.74234 20.3326 4.44407C20.7589 4.13912 21.2064 3.86979 21.6707 3.62939Z" fill="#04CBED"/>
<path d="M17.7266 6.05509C18.1803 5.74347 18.6425 5.4452 19.1279 5.18922C19.2757 5.11799 19.282 5.21593 19.282 5.32945C19.2187 12.2876 19.2715 19.2457 19.2567 26.2038C19.2567 26.9695 19.2335 27.7374 19.2757 28.5032C19.282 28.6033 19.2841 28.7013 19.2124 28.7814C18.6805 28.6211 18.1592 28.4297 17.6506 28.1982C17.562 27.9645 17.5514 27.7174 17.5514 27.4703C17.5514 20.668 17.5514 13.8657 17.5514 7.06342C17.5514 6.85418 17.5915 6.64273 17.5514 6.43572C17.5156 6.25542 17.6506 6.17306 17.7287 6.05732L17.7266 6.05509Z" fill="#02D2F4"/>
<path d="M17.7265 6.0542C17.526 6.29682 17.6737 6.57728 17.6737 6.83103C17.6632 13.7691 17.6653 20.705 17.6547 27.6431C17.6547 27.8256 17.8278 28.017 17.6505 28.1951C17.1883 28.0348 16.724 27.8768 16.2618 27.7165C16.2787 27.672 16.3209 27.603 16.3062 27.5852C16.0107 27.2068 16.1204 26.7594 16.1204 26.3387C16.1141 22.7127 16.112 19.0845 16.1247 15.4586C16.1247 15.1892 15.9833 14.9177 16.1331 14.6372C16.1732 14.5615 15.9664 14.4725 15.979 14.33C16.2471 13.9628 16.5721 13.6511 16.8823 13.3239C16.9372 13.2661 17.0406 13.2149 17.0153 13.1281C16.9815 13.0101 16.8591 13.0502 16.7747 13.0479C16.5552 13.0435 16.3357 13.0524 16.1162 13.0546C15.9643 11.3919 16.0782 9.72468 16.0529 8.0575C16.0487 7.83046 16.1394 7.60119 16.1648 7.37192C16.1774 7.26285 16.2787 7.14043 16.1563 7.03359C16.6607 6.67522 17.1904 6.35915 17.7265 6.0542Z" fill="#00D6F9"/>
<path d="M23.0088 65.1006C22.9222 64.6466 22.7893 64.2103 22.7893 63.7295C22.7998 56.5132 22.7977 49.2946 22.7977 42.0783C22.7977 41.8936 22.7872 41.711 22.8547 41.5307C22.8737 41.4795 22.9982 41.3282 22.7851 41.3393C22.7428 41.3415 22.745 41.2881 22.7661 41.2547C22.8336 41.1501 22.9138 41.2481 22.9898 41.2392C23.5174 42.2964 24.0091 43.3715 24.3574 44.5134C24.3785 44.5824 24.3932 44.6537 24.4101 44.7249C24.2413 44.6381 24.1062 44.6425 24.1885 44.8896C24.2962 45.2101 24.3299 45.5195 24.2244 45.8467C24.1927 45.9469 24.2096 46.0671 24.2096 46.1784C24.2096 52.5734 24.2117 58.9683 24.2012 65.3611C24.2012 65.6794 24.3531 65.9532 24.3405 66.2648C23.8741 65.9086 23.4351 65.5147 23.013 65.1006H23.0088Z" fill="#05C4E5"/>
<path d="M19.2102 28.7784C19.1216 28.429 19.1406 28.0706 19.1406 27.7145C19.1406 21.3529 19.1342 14.9891 19.1469 8.62748C19.1469 7.4856 19.0625 6.34372 19.1954 5.20407C19.1954 5.20184 19.1532 5.19294 19.13 5.18849C19.5183 4.9147 19.9088 4.6476 20.3351 4.44727C20.4554 4.56079 20.4427 4.55188 20.3646 4.67653C20.3267 4.73886 20.3393 4.83902 20.3393 4.92361C20.3393 12.8366 20.3393 20.7474 20.3393 28.6605C20.3393 28.8541 20.3794 29.05 20.4005 29.2436C19.9848 29.1457 19.6007 28.9543 19.2102 28.7807V28.7784Z" fill="#03CEF0"/>
<path d="M42.9992 27.8211C42.7396 27.7766 42.8852 27.5251 42.9127 27.4828C43.0203 27.3181 42.9844 27.1489 42.9844 26.982C42.9865 22.8552 42.9865 18.7284 42.9844 14.6016C42.9844 14.3256 43.0245 14.0585 43.111 13.8003C43.7843 14.408 44.3225 15.147 44.8817 15.8637C44.9155 15.9082 44.9282 15.9705 44.9514 16.024C44.9028 16.2688 44.926 16.5159 44.926 16.7607C44.9239 19.7634 44.926 22.7662 44.926 25.7689C44.926 26.0783 44.945 26.3877 44.8712 26.6904C44.829 26.8618 44.8965 27.0042 44.9598 27.1512C44.3182 27.4094 43.6619 27.6275 43.0013 27.8234L42.9992 27.8211Z" fill="#138DA7"/>
<path d="M19.8666 36.7067C19.7885 36.7423 19.6935 36.8024 19.7146 36.887C19.8075 37.2476 19.6196 37.5725 19.6218 37.9287C19.6386 41.0115 19.6302 44.0944 19.6323 47.1772C19.6323 47.6714 19.5795 48.1633 19.6154 48.6597C19.626 48.8021 19.6471 49.047 19.4107 49.1093C19.0161 47.8361 18.6341 46.5585 18.0727 45.3498C17.9545 45.096 17.8384 44.8401 17.7202 44.5863C17.5577 43.42 17.6316 42.2447 17.6253 41.0716C17.6147 39.1819 17.6189 37.2899 17.6253 35.4001C17.6253 35.1641 17.564 34.897 17.7983 34.7212C18.575 35.2799 19.244 35.9655 19.8624 36.7067H19.8666Z" fill="#02D1F3"/>
<path d="M44.958 27.1494C44.5296 27.2139 44.7153 26.8623 44.7533 26.7309C44.8166 26.5083 44.8145 26.2947 44.8145 26.0765C44.8145 22.8601 44.8145 19.6415 44.8208 16.4251C44.8208 16.2871 44.7258 16.089 44.9538 16.0244C45.6587 16.8814 46.2602 17.8096 46.7118 18.8424C46.5324 19.0405 46.5915 19.292 46.6189 19.5102C46.7076 20.2247 46.6759 20.9392 46.6738 21.6537C46.6738 23.0604 46.6949 24.465 46.6611 25.8717C46.659 25.9719 46.6611 26.0721 46.7202 26.1544C46.8215 26.2902 46.8004 26.4282 46.7371 26.5684C46.1546 26.8022 45.5595 26.9891 44.9559 27.1516L44.958 27.1494Z" fill="#1588A1"/>
<path d="M17.8025 34.7204C17.7413 34.9207 17.7329 35.1278 17.7329 35.3392C17.7329 38.0837 17.7371 40.8282 17.7286 43.5705C17.7286 43.8844 17.8933 44.1849 17.7856 44.5032C17.7751 44.5343 17.7455 44.5588 17.7244 44.5855C17.1989 43.5594 16.5869 42.5956 15.9094 41.6741C16.1268 41.5517 16.1943 41.407 15.9833 41.2044C15.9115 41.1354 15.939 40.9952 15.9411 40.9217C16.0382 38.678 15.9432 36.4343 15.9812 34.1907C15.9854 33.9191 16.0339 33.6475 16.0635 33.376C16.6776 33.7766 17.2897 34.1817 17.8067 34.7249L17.8025 34.7204Z" fill="#00D7FA"/>
<path d="M46.7392 26.5667C46.6949 26.5466 46.5852 26.5533 46.64 26.4776C46.7308 26.3508 46.8215 26.2706 46.5936 26.2128C46.5176 26.1927 46.5092 26.1081 46.5155 26.028C46.6506 24.0447 46.5472 22.0593 46.5641 20.076C46.5662 19.7132 46.5155 19.3437 46.486 18.9764C46.4649 18.7182 46.5767 18.7761 46.7097 18.8406C46.7371 18.8829 46.7667 18.9252 46.7941 18.9675C46.8131 19.061 46.7772 19.1856 46.9165 19.2146C47.7333 20.8039 48.2187 22.4933 48.3031 24.3052C48.3643 25.6207 47.8557 26.3663 46.7392 26.5667Z" fill="#16849C"/>
<path d="M46.9183 19.2146C46.8698 19.2346 46.817 19.2747 46.7685 19.2213C46.6862 19.1278 46.7727 19.0521 46.7959 18.9697C46.8655 19.0365 46.9014 19.1211 46.9183 19.2168V19.2146Z" fill="#1588A1"/>
<path d="M15.9093 57.6971C14.242 55.7539 12.7267 53.6838 11.2958 51.547C9.55256 48.9427 7.99292 46.2204 6.61478 43.3824C6.55147 43.2511 6.49238 43.1175 6.40796 42.9395C7.12974 43.0574 7.78821 43.26 8.44245 43.4692C11.0067 44.2928 13.3387 45.5549 15.2804 47.5426C15.5294 47.7963 15.8059 48.0278 15.9663 48.3662C16.1203 48.6177 16.0866 48.8937 16.0866 49.1764C16.076 51.5803 16.0802 53.9843 16.0802 56.3883C16.0802 56.5752 16.1246 56.7511 16.1837 56.9291C16.2913 57.2541 16.1879 57.5235 15.9072 57.6993L15.9093 57.6971Z" fill="#00DAFE"/>
<path d="M15.9094 57.6971C16.0782 57.4367 16.2745 57.1829 16.0318 56.8513C15.9474 56.7378 15.9769 56.5909 15.9769 56.4551C15.9769 54.0355 15.9769 51.6138 15.9769 49.1942C15.9769 48.9182 16.0423 48.64 15.9706 48.3662C16.6523 49.0918 17.2136 49.911 17.6737 50.808C17.5239 51.1552 17.5091 51.5158 17.5387 51.892C17.5893 52.5197 17.564 53.1496 17.5576 53.7773C17.5408 55.4534 17.6104 57.1318 17.5175 58.8078C17.4964 59.1796 17.4669 59.2041 17.1208 59.1172C16.6924 58.6676 16.2871 58.1957 15.9115 57.6971H15.9094Z" fill="#00D6FA"/>
<path d="M17.1187 59.1166C17.3425 59.1033 17.3931 59.0632 17.41 58.7516C17.5176 56.5858 17.41 54.4222 17.4564 52.2587C17.4649 51.8959 17.3868 51.5419 17.429 51.1702C17.4543 50.9499 17.5197 50.8742 17.6738 50.8052C18.1909 51.6443 18.6024 52.5391 18.9274 53.4785C18.7586 53.8257 18.9021 54.1818 18.9 54.5313C18.8915 56.0627 18.8958 57.5964 18.8979 59.1278C18.8979 59.6219 18.8936 60.1161 18.9042 60.6102C18.9063 60.7215 19.0013 60.9441 18.7311 60.8907C18.174 60.3186 17.6274 59.7354 17.1209 59.1144L17.1187 59.1166Z" fill="#02D3F6"/>
<path d="M18.7289 60.8954C18.7753 60.8865 18.8344 60.8754 18.8323 60.8175C18.7289 58.6139 18.8176 56.408 18.7901 54.2021C18.788 54.0129 18.6466 53.8371 18.7542 53.639C18.7965 53.5611 18.826 53.4832 18.9252 53.481C19.4233 54.6763 19.782 55.9183 20.0437 57.1915C19.8517 57.4052 20.0079 57.6567 19.9994 57.8838C19.9509 59.2126 20.0205 60.5415 19.9593 61.8703C19.953 61.9972 20.0163 62.1285 20.048 62.2576C19.5858 61.8258 19.1362 61.3829 18.731 60.8932L18.7289 60.8954Z" fill="#03CFF2"/>
<path d="M20.4659 58.1396V58.981C20.3013 58.9543 20.3435 58.8319 20.3456 58.7317C20.5102 58.5626 20.3372 58.3177 20.4659 58.1419V58.1396Z" fill="#4BDBF2"/>
</svg>
