<svg width="96" height="107" viewBox="0 0 96 107" fill="none" xmlns="http://www.w3.org/2000/svg">
<g clip-path="url(#clip0_3634_16007)">
<path d="M82.7869 84.2947C82.7869 85.05 82.7911 85.8067 82.7869 86.562C82.7798 87.4067 82.4269 87.7893 81.5823 87.8941C80.715 88.0018 79.8506 88.1265 78.9833 88.2201C78.5908 88.2626 78.3669 88.3788 78.2649 88.8224C77.8596 90.5838 77.1637 92.2348 76.2129 93.7709C76.0173 94.0884 76.0357 94.3024 76.261 94.5829C76.9682 95.4686 77.6342 96.3869 78.3513 97.2641C78.6248 97.5986 78.588 97.7899 78.2904 98.079C77.0206 99.3119 75.7594 100.556 74.5307 101.832C74.1949 102.18 73.9979 102.121 73.6705 101.857C72.8274 101.174 71.9431 100.541 71.1013 99.8546C70.7853 99.5967 70.5614 99.54 70.1858 99.7739C68.695 100.706 67.0866 101.381 65.3733 101.783C64.9297 101.888 64.7058 102.057 64.6662 102.566C64.5811 103.647 64.3799 104.718 64.2779 105.799C64.2354 106.244 64.0483 106.332 63.6501 106.328C61.8787 106.311 60.1073 106.308 58.3359 106.331C57.9093 106.337 57.769 106.196 57.7279 105.781C57.6202 104.701 57.4445 103.628 57.3368 102.549C57.2929 102.099 57.1044 101.901 56.6708 101.8C54.9575 101.404 53.3462 100.736 51.8568 99.7994C51.4628 99.5514 51.2092 99.5996 50.8677 99.8787C50.0457 100.552 49.1714 101.16 48.3579 101.84C47.9994 102.139 47.7996 102.18 47.4496 101.816C46.2195 100.542 44.9583 99.2977 43.6871 98.0662C43.3711 97.7601 43.4051 97.5631 43.663 97.2471C44.3645 96.3884 45.0178 95.4899 45.7136 94.6269C45.9545 94.3293 45.9928 94.111 45.7774 93.761C44.8293 92.2234 44.1392 90.5711 43.7268 88.811C43.6375 88.4284 43.4618 88.2739 43.0692 88.2342C41.9894 88.1223 40.9152 87.9522 39.8368 87.8332C39.3932 87.785 39.1948 87.6476 39.2048 87.1416C39.2402 85.4184 39.2487 83.6924 39.2033 81.9706C39.1877 81.408 39.4329 81.3017 39.8864 81.2521C40.9421 81.1359 41.9936 80.9743 43.0494 80.8652C43.4278 80.827 43.6318 80.7093 43.724 80.3111C44.1335 78.527 44.8392 76.8562 45.7986 75.2988C45.9928 74.9827 45.963 74.7787 45.7363 74.4981C45.0376 73.6365 44.3843 72.738 43.6829 71.8778C43.4108 71.5434 43.3683 71.3393 43.7154 71.0063C44.9597 69.8131 46.1798 68.5944 47.3759 67.3544C47.7387 66.9789 47.9753 66.9123 48.4019 67.275C49.2266 67.9793 50.1194 68.6029 50.9626 69.2873C51.2489 69.5198 51.4699 69.524 51.7732 69.3355C53.3079 68.3804 54.9631 67.6959 56.7189 67.2807C57.1583 67.1773 57.2844 66.9604 57.3297 66.5665C57.453 65.488 57.6216 64.4139 57.7279 63.334C57.769 62.9174 57.9093 62.77 58.3345 62.7743C60.1059 62.7927 61.8773 62.7898 63.6487 62.7743C64.0511 62.7714 64.2325 62.882 64.2764 63.317C64.3856 64.421 64.5712 65.5164 64.6817 66.6189C64.7214 67.0185 64.8674 67.1744 65.2571 67.2694C67.0342 67.7002 68.7163 68.3804 70.2638 69.361C70.6025 69.575 70.8051 69.4787 71.0645 69.2732C71.9346 68.5845 72.8245 67.9212 73.6861 67.224C73.9894 66.9789 74.1878 66.9122 74.5024 67.2368C75.7523 68.5249 77.0235 69.7918 78.3088 71.0446C78.6262 71.3535 78.578 71.5547 78.3244 71.8665C77.6257 72.7281 76.9738 73.6266 76.2752 74.4896C76.0244 74.7999 76.0244 75.0324 76.2327 75.3654C77.1921 76.8987 77.8596 78.5596 78.279 80.3154C78.3655 80.6767 78.5171 80.8128 78.8855 80.8511C79.9654 80.9644 81.0367 81.1557 82.118 81.2478C82.6678 81.2946 82.8322 81.493 82.7982 82.0329C82.75 82.7854 82.7855 83.5436 82.7869 84.2989V84.2947ZM48.7703 90.452C49.0282 90.5555 49.0566 90.8177 49.1643 91.0146C51.8469 95.8952 57.4105 98.7209 62.7701 97.9203C70.2071 96.8078 75.1543 90.4166 74.3692 82.9342C73.6521 76.1079 67.3714 70.7201 60.5282 71.063C52.3684 71.4725 46.5922 78.432 47.6635 86.5479C47.7443 87.1601 48.229 87.9324 47.1137 88.2002C46.8841 88.2555 46.7509 88.6509 46.9252 88.8705C47.1009 89.0944 47.3844 89.0689 47.5473 88.76C47.6253 88.6112 47.7656 88.5531 47.8974 88.6495C48.0674 88.7742 48.0093 88.9626 47.8974 89.0859C47.7557 89.2404 47.5743 89.358 47.4042 89.4841C46.877 89.8781 46.6872 90.5952 47.0018 91.0189C47.0669 91.1053 48.5181 91.3137 48.596 91.23C48.6513 91.1705 48.6669 91.0685 48.6825 90.9835C48.715 90.8092 48.6258 90.6136 48.7703 90.4492V90.452ZM69.9463 71.4059C69.9463 71.4059 69.9378 71.4059 69.935 71.4059C69.935 71.0531 69.9364 70.6988 69.935 70.3459C69.9322 69.9435 69.7324 69.6841 69.354 69.5552C68.9827 69.4291 68.6539 69.5283 68.3677 69.7692C68.1523 69.9506 68.0176 70.2439 68.1863 70.4565C68.3606 70.6761 68.6511 70.6648 68.8056 70.3388C68.8821 70.1773 69.021 70.1419 69.1513 70.234C69.3242 70.3559 69.2874 70.5486 69.1641 70.6648C68.9614 70.8561 68.7149 71.0006 68.498 71.1792C68.0729 71.5264 68.0176 72.0054 68.1905 72.4645C68.3521 72.8911 68.7078 72.9775 69.1102 72.6969C69.1556 72.6658 69.2562 72.6714 69.3072 72.7012C69.9549 73.064 69.9563 72.6332 69.9506 72.1854C69.9463 71.926 69.9506 71.6667 69.9506 71.4074L69.9463 71.4059Z" fill="url(#paint0_linear_3634_16007)"/>
<path d="M25.9573 46.2846C18.9454 46.2846 11.9335 46.2903 4.9216 46.2818C2.24607 46.2775 0.313122 44.5614 0.0254468 41.9539C-0.0865057 40.9364 0.169993 39.9869 0.678739 39.1055C7.72041 26.9083 14.7564 14.7069 21.8108 2.51681C23.748 -0.830426 28.1865 -0.844597 30.1421 2.50831C34.1469 9.37568 38.1006 16.2742 42.0757 23.1586C45.131 28.4501 48.1948 33.736 51.243 39.0318C52.8982 41.9071 51.5137 45.345 48.3974 46.1457C47.8887 46.2761 47.37 46.2846 46.8499 46.2846C39.8848 46.2846 32.9211 46.2846 25.9559 46.2846H25.9573ZM25.9673 43.4149C32.9083 43.4149 39.8494 43.4149 46.789 43.4149C47.1886 43.4149 47.5897 43.4362 47.9695 43.2562C49.1145 42.7134 49.371 41.55 48.627 40.2618C44.4493 33.0303 40.2717 25.8001 36.0954 18.5685C33.3108 13.7475 30.5233 8.92787 27.75 4.09974C27.3872 3.4677 26.9323 2.99297 26.1812 2.92069C25.1198 2.81866 24.5714 3.48187 24.0952 4.31089C19.2799 12.6719 14.4503 21.0258 9.62644 29.3812C7.50359 33.0586 5.38216 36.7374 3.2579 40.4135C2.92488 40.9902 2.75199 41.5783 3.02691 42.2316C3.41095 43.1471 4.14218 43.4206 5.07465 43.4192C12.0384 43.4093 19.0035 43.4135 25.9673 43.4149Z" fill="url(#paint1_linear_3634_16007)"/>
<path d="M95.9661 52.486C95.9661 52.9111 95.9165 53.3433 95.9774 53.76C96.0865 54.511 95.8116 54.8639 95.0492 54.8327C93.6094 54.7732 92.6004 55.204 92.3963 56.8535C92.3127 57.5352 91.8904 58.1715 91.4979 58.7638C91.308 59.0501 91.3221 59.2584 91.5347 59.5163C91.9839 60.0633 92.3949 60.6415 92.8498 61.1843C93.0865 61.4663 93.0524 61.6519 92.8016 61.8971C91.9726 62.7034 91.1521 63.5197 90.3443 64.3473C90.1006 64.5967 89.9235 64.6307 89.6372 64.394C89.0193 63.8839 88.4284 63.1753 87.7142 62.9925C86.9773 62.804 86.3325 63.6586 85.5672 63.8782C85.1378 64.0015 84.7269 64.2325 84.2918 64.2906C83.6385 64.3785 83.4529 64.7455 83.4217 65.3293C83.3934 65.8707 83.2814 66.4064 83.246 66.9463C83.2191 67.353 83.0703 67.5202 82.638 67.5103C81.5058 67.4834 80.3721 67.4919 79.2384 67.5075C78.8883 67.5117 78.7367 67.404 78.7055 67.0384C78.6474 66.3568 78.5199 65.6822 78.4561 65.002C78.4221 64.6435 78.2818 64.4564 77.9219 64.3742C76.7867 64.1149 75.7197 63.6671 74.7291 63.0591C74.4088 62.8636 74.1906 62.8848 73.9142 63.1144C73.3885 63.5523 72.8316 63.9519 72.303 64.387C72.0493 64.5967 71.8707 64.6619 71.6015 64.3799C70.7852 63.5268 69.9491 62.6935 69.0989 61.8758C68.8254 61.6137 68.865 61.4394 69.0819 61.1743C69.5892 60.5536 70.3105 59.967 70.4848 59.2542C70.6619 58.5286 69.8188 57.8767 69.5963 57.1143C69.524 56.8663 69.3624 56.6311 69.344 56.3816C69.2562 55.2621 68.5915 54.9759 67.5698 54.8894C65.9684 54.7534 65.9741 54.6854 65.9741 53.0457C65.9741 52.3131 65.9996 51.5804 65.9642 50.8506C65.9429 50.4184 66.1102 50.2696 66.5169 50.2356C67.1517 50.1832 67.7809 50.0712 68.4144 50.0117C68.8169 49.9734 69.0266 49.8147 69.1244 49.3924C69.3766 48.3069 69.8032 47.2823 70.3884 46.3314C70.5897 46.0055 70.6038 45.7575 70.3445 45.45C69.9024 44.9285 69.5197 44.356 69.0762 43.8359C68.8339 43.5525 68.8721 43.3796 69.1215 43.1358C69.9506 42.3295 70.7711 41.5132 71.5703 40.6785C71.8552 40.3809 72.0592 40.4348 72.3384 40.6658C72.8656 41.1023 73.4239 41.5005 73.9511 41.9355C74.2076 42.1481 74.4116 42.1552 74.7036 41.9795C75.6984 41.38 76.757 40.9124 77.8963 40.6615C78.2861 40.5751 78.4278 40.3611 78.4618 39.9813C78.5213 39.3238 78.646 38.6719 78.6999 38.0143C78.731 37.6232 78.8926 37.4957 79.2724 37.5013C80.4061 37.5169 81.5398 37.5184 82.672 37.4985C83.0674 37.4914 83.2091 37.6544 83.2446 38.0285C83.3097 38.7087 83.4274 39.3847 83.4911 40.0649C83.5223 40.3951 83.6428 40.5538 83.98 40.636C85.1322 40.9166 86.2248 41.3644 87.2352 41.988C87.5314 42.1708 87.7354 42.1311 87.9877 41.9256C88.5177 41.492 89.0774 41.0966 89.6032 40.6587C89.8909 40.4192 90.0893 40.3965 90.3684 40.6899C91.1663 41.526 91.9868 42.3436 92.82 43.1457C93.0935 43.4093 93.051 43.5936 92.8356 43.8557C92.4006 44.3843 92.008 44.9469 91.5659 45.4698C91.3264 45.7518 91.325 45.9729 91.5163 46.2832C92.1285 47.2738 92.5536 48.3494 92.8399 49.4746C92.9221 49.7977 93.051 49.9522 93.3954 49.9819C94.0288 50.0372 94.6566 50.1789 95.2915 50.2115C95.8442 50.2398 96.0242 50.4694 95.9788 51.0023C95.9377 51.494 95.9703 51.9928 95.9703 52.4888L95.9661 52.486ZM91.2017 52.9579H91.1904C91.1904 52.6277 91.1974 52.2975 91.1889 51.9673C91.1804 51.6697 91.0926 51.3197 90.8077 51.2658C90.0751 51.1284 90.0595 50.5615 89.9135 50.0259C88.8918 46.2563 85.4028 43.4221 81.5837 43.2379C77.3734 43.0352 73.7711 45.3593 72.2647 49.2507C70.8618 52.8729 71.9969 57.1752 75.0026 59.6424C78.1599 62.2329 82.5048 62.532 85.8932 60.3836C87.9324 59.0898 89.2716 57.2673 89.9277 54.9461C90.0198 54.6216 90.1502 54.144 90.4946 54.2857C91.41 54.6613 91.1535 54.0009 91.1974 53.5956C91.2201 53.3859 91.2017 53.1719 91.2017 52.9593V52.9579Z" fill="url(#paint2_linear_3634_16007)"/>
<path d="M11.6956 71.9586C11.6956 64.6619 11.7027 57.3651 11.6829 50.0684C11.6815 49.4576 11.7863 49.1444 12.4793 49.2294C13.1298 49.3088 13.9673 48.9687 14.3995 49.3626C14.8431 49.7665 14.5412 50.6111 14.5426 51.2602C14.5526 64.4606 14.5497 77.6597 14.5511 90.8602C14.5511 91.4752 14.8502 91.7832 15.4482 91.7842C23.8786 91.7842 32.3077 91.7912 40.7381 91.7671C41.3588 91.7657 41.7046 91.923 41.8619 92.5253C41.9384 92.8186 42.0957 93.0922 42.2233 93.3699C42.5945 94.1748 42.2828 94.6666 41.3815 94.6666C35.1943 94.6694 29.0086 94.668 22.8215 94.6694C19.3977 94.6694 15.9739 94.6538 12.5502 94.6878C11.8912 94.6949 11.673 94.556 11.6758 93.8475C11.7042 86.5507 11.6928 79.254 11.6928 71.9572H11.6971L11.6956 71.9586Z" fill="url(#paint3_linear_3634_16007)"/>
<path d="M58.0395 7.82107C64.9111 7.82107 71.7827 7.82957 78.6543 7.80689C79.2453 7.80548 79.3927 7.95286 79.3912 8.5438C79.3714 16.9502 79.3728 25.3565 79.3912 33.7629C79.3912 34.3765 79.268 34.6798 78.592 34.5806C78.2689 34.5324 77.9316 34.5735 77.6014 34.5735C76.4961 34.5749 76.4918 34.5749 76.4918 33.4355C76.4918 26.1388 76.4776 18.842 76.5102 11.5467C76.5131 10.8041 76.2906 10.6638 75.6033 10.6652C63.443 10.6851 51.2812 10.6751 39.1209 10.6922C38.513 10.6922 38.1105 10.5788 37.8498 9.97509C37.5989 9.39407 37.2447 8.85415 36.9046 8.31706C36.6325 7.88767 36.7813 7.79414 37.2135 7.81965C37.5196 7.83807 37.8271 7.81965 38.1346 7.81965C44.7696 7.81965 51.4059 7.81965 58.0409 7.81965L58.0395 7.82107Z" fill="url(#paint4_linear_3634_16007)"/>
<path d="M25.9658 31.3113C24.502 31.3113 24.4708 31.317 24.2511 29.9084C23.6134 25.8299 22.8808 21.767 22.3904 17.6659C22.3309 17.1741 22.3097 16.6767 22.3054 16.1822C22.2827 14.1061 23.8784 12.5146 25.9715 12.5146C28.0788 12.5146 29.7184 14.0834 29.6759 16.1481C29.6291 18.4425 29.177 20.6943 28.8313 22.956C28.4472 25.4742 28.0107 27.9839 27.6465 30.505C27.5544 31.1441 27.3404 31.436 26.6758 31.3184C26.4462 31.2773 26.2053 31.3113 25.9687 31.3128L25.9658 31.3113Z" fill="url(#paint5_linear_3634_16007)"/>
<path d="M26.6318 33.7177C26.6091 34.0479 26.3002 34.0904 26.106 34.2264C25.661 34.5382 25.5363 34.9718 25.6228 35.465C25.6936 35.8717 25.9586 36.0758 26.3937 35.9581C26.4589 35.9397 26.5311 35.8433 26.5737 35.8589C27.7315 36.2529 27.3687 35.3785 27.431 34.8471C27.4622 34.5779 27.2865 34.1896 27.5614 34.0691C27.8562 33.9387 28.1027 34.2817 28.3309 34.4645C29.8415 35.6846 30.0825 37.8953 28.8722 39.3139C27.4679 40.962 25.0843 41.1533 23.5169 39.7348C22.5065 38.8207 22.0941 37.6884 22.4413 36.3563C22.8041 34.9647 23.7196 34.0606 25.1211 33.7361C25.5973 33.6256 26.1202 33.7191 26.6318 33.7191V33.7177Z" fill="url(#paint6_linear_3634_16007)"/>
<path d="M67.9863 68.8566L66.4946 72.1465L69.8503 73.668L71.342 70.3781L67.9863 68.8566Z" fill="url(#paint7_linear_3634_16007)"/>
<path d="M27.7176 34.042H25.4502V36.1677H27.7176V34.042Z" fill="url(#paint8_linear_3634_16007)"/>
<path d="M47.8323 87.3303L45.5723 88.1646L47.1426 92.4188L49.4026 91.5845L47.8323 87.3303Z" fill="url(#paint9_linear_3634_16007)"/>
</g>
<defs>
<linearGradient id="paint0_linear_3634_16007" x1="39.2026" y1="84.5527" x2="82.8038" y2="84.5649" gradientUnits="userSpaceOnUse">
<stop stop-color="#261C67"/>
<stop offset="1" stop-color="#0F0B29"/>
</linearGradient>
<linearGradient id="paint1_linear_3634_16007" x1="-0.000488401" y1="23.1434" x2="51.9496" y2="23.1596" gradientUnits="userSpaceOnUse">
<stop stop-color="#261C67"/>
<stop offset="1" stop-color="#0F0B29"/>
</linearGradient>
<linearGradient id="paint2_linear_3634_16007" x1="65.9624" y1="52.5046" x2="96.0013" y2="52.5129" gradientUnits="userSpaceOnUse">
<stop stop-color="#261C67"/>
<stop offset="1" stop-color="#0F0B29"/>
</linearGradient>
<linearGradient id="paint3_linear_3634_16007" x1="11.6758" y1="71.9283" x2="42.3775" y2="71.934" gradientUnits="userSpaceOnUse">
<stop stop-color="#261C67"/>
<stop offset="1" stop-color="#0F0B29"/>
</linearGradient>
<linearGradient id="paint4_linear_3634_16007" x1="36.7676" y1="21.2031" x2="79.3926" y2="21.2219" gradientUnits="userSpaceOnUse">
<stop stop-color="#261C67"/>
<stop offset="1" stop-color="#0F0B29"/>
</linearGradient>
<linearGradient id="paint5_linear_3634_16007" x1="22.3052" y1="21.9294" x2="29.6769" y2="21.9302" gradientUnits="userSpaceOnUse">
<stop stop-color="#261C67"/>
<stop offset="1" stop-color="#0F0B29"/>
</linearGradient>
<linearGradient id="paint6_linear_3634_16007" x1="22.3203" y1="37.184" x2="29.6431" y2="37.1861" gradientUnits="userSpaceOnUse">
<stop stop-color="#261C67"/>
<stop offset="1" stop-color="#0F0B29"/>
</linearGradient>
<linearGradient id="paint7_linear_3634_16007" x1="68.1725" y1="72.9072" x2="69.6651" y2="69.6177" gradientUnits="userSpaceOnUse">
<stop stop-color="#261C67"/>
<stop offset="1" stop-color="#0F0B29"/>
</linearGradient>
<linearGradient id="paint8_linear_3634_16007" x1="25.4502" y1="35.1048" x2="27.7177" y2="35.1055" gradientUnits="userSpaceOnUse">
<stop stop-color="#261C67"/>
<stop offset="1" stop-color="#0F0B29"/>
</linearGradient>
<linearGradient id="paint9_linear_3634_16007" x1="46.3574" y1="90.2917" x2="48.6177" y2="89.4578" gradientUnits="userSpaceOnUse">
<stop stop-color="#261C67"/>
<stop offset="1" stop-color="#0F0B29"/>
</linearGradient>
<clipPath id="clip0_3634_16007">
<rect width="96" height="106.329" fill="white"/>
</clipPath>
</defs>
</svg>
