<?xml version="1.0" encoding="UTF-8"?>
<svg id="Layer_1" data-name="Layer 1" xmlns="http://www.w3.org/2000/svg" viewBox="0 0 682 262">
  <defs>
    <style>
      .cls-1 {
        fill: #fff;
      }
    </style>
  </defs>
  <g>
    <g>
      <path class="cls-1" d="m153.5386,100.4244h-61.1473c-2.2954,0-4.1567,1.85-4.1567,4.1325s1.8612,4.1325,4.1567,4.1325h26.4164v47.8097c0,2.2825,1.8608,4.1325,4.1567,4.1325h.0012c2.2954,0,4.1567-1.85,4.1567-4.1325v-47.8097h26.4164c2.2954,0,4.1567-1.8504,4.1567-4.1325s-1.8612-4.1325-4.1567-4.1325Z"/>
      <path class="cls-1" d="m413.6876,100.4244h-64.3287c-2.2954,0-4.1567,1.85-4.1567,4.1325s1.8612,4.1325,4.1567,4.1325h28.0071v47.8097c0,2.2825,1.8608,4.1325,4.1567,4.1325h.0012c2.2954,0,4.1567-1.85,4.1567-4.1325v-47.8097h28.0071c2.2954,0,4.1567-1.8504,4.1567-4.1325s-1.8612-4.1325-4.1567-4.1325Z"/>
      <path class="cls-1" d="m316.2107,133.8928c8.3543-2.0574,14.3215-7.8805,14.3215-16.461,0-10.2862-8.4716-17.0055-18.816-17.0074h-46.9555c-2.2954,0-4.1563,1.85-4.1563,4.1321v.0012c0,2.2821,1.8608,4.1325,4.1563,4.1325h48.665c4.8564,0,8.7932,3.9139,8.7932,8.7417s-3.9368,8.7421-8.7932,8.7421h-48.665c-2.2954,0-4.1563,1.85-4.1563,4.1325v26.1938c0,2.2825,1.8608,4.1325,4.1563,4.1325s4.1567-1.85,4.1567-4.1325v-21.8398h35.76l14.6249,23.9822c.7535,1.2355,2.1012,1.99,3.5544,1.99h1.0357c3.2336,0,5.2287-3.5099,3.5606-6.2641l-12.266-20.2499c.2047-.0381.4083-.0796.6096-.1243l.4141-.1016Z"/>
      <path class="cls-1" d="m56.3401,126.3958l-39.1229.0008c-.0441,0-.0871-.0008-.1312-.0008-4.7995-.0712-8.7027-3.952-8.7731-8.7224,0-.0439-.0004-.0877-.0004-.1316s.0004-.0877.0004-.1308c.0716-4.8201,4.0549-8.7217,8.9043-8.7217h47.3835c2.2958,0,4.157-1.8504,4.157-4.1325s-1.8612-4.1325-4.157-4.1325H17.4866c-.9459,0-1.8941.0385-2.8284.1832-8.5374,1.3217-14.6582,8.6262-14.6582,16.9343,0,9.4096,7.7521,17.1186,17.2172,17.1186l39.1229-.0008c.0441,0,.0882.0008.1324.0008,4.7972.0716,8.7007,3.9524,8.7708,8.722,0,.0439.0015.087.0015.1308,0,.0431-.0015.087-.0015.1301-.0708,4.822-4.0522,8.7228-8.9031,8.7228H4.7448c-2.2958,0-4.1567,1.8504-4.1567,4.1325v.0004c0,2.2825,1.8608,4.1325,4.1567,4.1325h51.5953c2.0102,0,4.0011-.349,5.889-1.0377,6.7548-2.4676,11.3286-8.8987,11.3286-16.0805,0-9.4093-7.7525-17.1174-17.2176-17.1174Z"/>
      <path class="cls-1" d="m246.8996,158.2562c.0406-.085.0805-.1689.1149-.257.079-.2001.1447-.4048.192-.6149.0132-.06.019-.1216.0294-.1824.0348-.1958.0546-.394.0604-.5941.0008-.0369.0108-.0712.0108-.1081,0-.0223-.0062-.0427-.0066-.065-.0035-.2389-.0252-.4787-.0728-.7184-.0128-.0662-.0341-.1285-.0499-.1935-.0387-.1539-.0855-.307-.1436-.459-.0399-.1074-.0828-.212-.1316-.3151-.0399-.0823-.0875-.1628-.1335-.2439-.0751-.1347-.1478-.269-.2369-.3936l-32.8174-51.2199c-2.1573-3.3672-7.1035-3.3629-9.2549.0077l-32.7222,51.2618c-1.9018,2.7365.0685,6.4707,3.414,6.4707h.017c1.3631,0,2.6395-.6657,3.4143-1.7807l30.5762-48.7697,26.512,42.2866h-23.5126c-2.2954,0-4.1563,1.85-4.1563,4.1321s1.8608,4.1317,4.1563,4.1317h30.9949c.2667-.0004.5213-.0319.7694-.0773.0492-.0092.0971-.0204.1459-.0312.2403-.0531.4722-.1224.6912-.2135.0039-.0015.0081-.0027.012-.0042.2454-.1031.476-.2286.692-.3736.0112-.0073.0213-.0158.0325-.0235.1896-.1304.3657-.2759.5295-.4344.0329-.0312.0666-.0612.0983-.0939.1595-.1647.3073-.339.4366-.5264.0426-.0604.0766-.1258.1157-.1885.0817-.1324.1564-.2682.2229-.4086Z"/>
    </g>
    <g>
      <path class="cls-1" d="m413.6876,188.5764h-64.3287c-2.2954,0-4.1567,1.85-4.1567,4.1325s1.8612,4.1325,4.1567,4.1325h28.0071v47.8097c0,2.2825,1.8608,4.1325,4.1567,4.1325h.0012c2.2954,0,4.1567-1.85,4.1567-4.1325v-47.8097h28.0071c2.2954,0,4.1567-1.8504,4.1567-4.1325s-1.8612-4.1325-4.1567-4.1325Z"/>
      <path class="cls-1" d="m88.2346,192.7089c0-2.2823,1.861-4.1325,4.1567-4.1325h.0012c2.2957,0,4.1567,1.8502,4.1567,4.1325v47.8097h56.8153c2.2762,0,4.261,1.7439,4.329,4.0058.0704,2.3403-1.817,4.2591-4.1547,4.2591h-60.5874c-2.6049,0-4.7166-2.0994-4.7166-4.6892v-51.3854Z"/>
      <g>
        <path class="cls-1" d="m239.7251,188.5814h-40.1165c-13.8533,0-25.1879,11.2686-25.1879,25.0413v10.119c0,13.7729,11.3347,25.0417,25.1883,25.0417h40.1165c2.2952,0,4.1559-1.8498,4.1559-4.1317v-.0008c0-2.2821-1.8608-4.1321-4.1563-4.1321h-39.9105c-9.3941,0-17.0802-7.6414-17.0802-16.9808v-12.913c0-7.5827,6.2319-13.7787,13.8586-13.7787l43.1325-.0008c2.2952,0,4.1558-1.8499,4.1558-4.1317v-.0004c0-2.2821-1.8608-4.1321-4.1563-4.1321Z"/>
        <path class="cls-1" d="m199.1172,214.5479c-2.2954,0-4.1563,1.85-4.1563,4.1321h0c0,2.2817,1.8608,4.1317,4.1563,4.1317h30.9922c2.2954,0,4.1563-1.85,4.1563-4.1317h0c0-2.2821-1.8608-4.1321-4.1563-4.1321h-30.9922Z"/>
      </g>
      <g>
        <path class="cls-1" d="m330.0631,192.586c-.0687-2.2615-2.0535-4.0046-4.3293-4.0046h-39.9416c-13.8533,0-25.1879,11.2686-25.1879,25.0413v31.0281c0,2.2824,1.8611,4.1327,4.1568,4.1327h0c2.2958,0,4.1568-1.8503,4.1568-4.1327v-34.0257c0-7.5827,6.2319-13.7787,13.8586-13.7787l43.1321-.0008c2.3382,0,4.2254-1.9195,4.1543-4.2596Z"/>
        <path class="cls-1" d="m285.3009,214.5479c-2.2954,0-4.1563,1.85-4.1563,4.1321h0c0,2.2817,1.8608,4.1317,4.1563,4.1317h30.9922c2.2954,0,4.1563-1.85,4.1563-4.1317h0c0-2.2821-1.8608-4.1321-4.1563-4.1321h-30.9922Z"/>
      </g>
      <rect class="cls-1" x="0" y="240.5419" width="69.4606" height="8.2416" rx="4.12" ry="4.12" transform="translate(69.4606 489.3254) rotate(180)"/>
    </g>
    <path class="cls-1" d="m438.1453,190.8253h-2.7568v-2.2489h8.0907v2.2489h-2.7568v6.984h-2.577v-6.984Zm6.7722-2.2489h2.7269l2.1875,3.5678,2.2175-3.5678h2.6969v9.2329h-2.5471v-5.3958l-2.3373,3.6572h-.0899l-2.3373-3.6572v5.3958h-2.5171v-9.2329Z"/>
  </g>
  <path class="cls-1" d="m509.5005,203.7624l29.8461-48.7694,29.3822,29.2198-33.7737,11.1476-25.4545,8.402Zm81.6873-168.5773l21.9823,94.2107-43.1782-26.3896,21.1959-67.8211Zm-20.9642,144.8001l-28.7158-28.557,25.1987-42.2101,3.5172,70.7672Zm-32.9918-29.294l-14.005,22.8847-16.791-28.6095-2.2867-3.8974,49.8841-18.5221-16.8014,28.1442Zm33.4749-42.4987l42.1784,25.7788-38.6143,45.9095-3.5641-71.6883Zm50.3109,30.7487l32.7788,20.0337-17.448,16.6704-15.3308-36.7042Zm12.1797,39.6621l-28.7781,15.5281c3.1832-13.6403,9.6164-41.2801,12.6233-54.2041l16.1548,38.6761Zm-13.8518-45.4329l34.2633-25.0957,3.3201,48.0656-37.5833-22.9699Zm33.2788-29.397l-32.8198,24.039c3.1432-14.1565,11.7677-52.9118,14.8536-65.9195l17.9662,41.8805ZM606.4401,0l28.5884,22.02-16.3361-.9741-12.2523-21.0459Zm11.7499,25.0774l19.0505,1.1355-16.591,18.9735-14.1912-9.976,11.7316-10.1329Zm13.3065,32.6865c-1.9893,7.811-11.3888,50.0143-15.2053,67.198l-21.7388-93.1673,36.9441,25.9693Zm-71.8891-14.3753l28.7099-12.588-11.2238,35.9127-25.6892-6.4796,8.2031-16.8452Zm-7.0511,5.2333l-5.1621,10.6002-.0899-.0228-16.4018-11.8609,12.978-3.3004,8.6759,4.5839Zm-10.2057-8.3783l-11.5089,2.9267,14.5103-21.5889-3.0015,18.6622Zm-2.0861,47.7691c-.8254-.4202-1.4079-1.2023-1.5753-2.1145l-2.9204-15.923c-.4421-1.3042.3152-2.7099,1.6465-3.0544l11.8092-3.0559,26.6579,6.7241-9.441,30.2077-26.1767-12.784Zm-68.4599,9.2519c.2006-.4648,1.6805-3.2856,2.3237-4.476-.6852-.4648-6.8896-2.411-9.156-3.0752-.3774-.1109-.7459-.2514-1.4251-.4821.6723-.243,1.0388-.396,1.4172-.5093,2.1839-.6519,8.3671-2.5981,9.1007-3.0955-.6111-1.1117-2.0742-3.8286-2.2955-4.278.451.2118,3.1808,1.6532,4.2888,2.2684.5128-.7672,2.4507-6.9399,3.0795-9.091.1097-.3757.2524-.7415.3804-1.1117.0825-.002.1655-.004.248-.0059.4011,1.3285.8042,2.6565,1.2024,3.986.3932,1.3122,1.8268,5.6065,2.298,6.2965,1.1436-.6311,3.9213-2.1313,4.1668-2.2511.0415.0401.0835.0797.125.1198-.4559.8533-1.9374,3.6157-2.2224,4.1429.6491.4168,7.4157,2.561,10.3939,3.4489-.6387.2554-.9396.4049-1.2567.4979-2.3064.6756-8.54,2.6302-9.2158,3.0757.7691,1.4235,1.5511,2.8713,2.4255,4.4893-.4406-.1896-3.2964-1.7195-4.514-2.3877-.4224.6499-2.5919,7.4958-3.4836,10.5032-.2668-.6746-.4174-.9884-.5162-1.3181-.7024-2.3456-2.6344-8.4946-3.0158-9.1103-1.3827.7469-2.7885,1.5161-4.3485,2.3635Zm11.8033,41.5385l-4.9695-16.7348,1.0092-8.9222,2.1306-3.5969,1.1954,12.4083,6.7133,16.8882,7.9186,2.011-5.2046,8.0155-8.7929-10.0691Zm9.2691,16.7714l.8724-1.3438,7.0541-10.864,18.9305,32.2559-37.4124-3.7919,10.5555-16.2561h0Zm-12.3304,20.1525l38.9482,3.9469-16.9377,27.6775-22.0095,14.4322-6.2578-24.1657,6.2568-21.8908Zm-10.4641,73.1034h-27.9931l29.3857-45.9407,5.7717,22.2878-7.1643,23.6529Zm65.6229-49.4485l34.6871-11.449-1.0393,18.5968-11.4659,7.6225-17.5315,10.1562-4.6504-24.9265Zm-10.0442,49.4485l12.9646-18.8364,15.6079-9.0415,5.1686,27.8779h-33.7411Zm78.8691,13.1695h-40.2874l8.9194-54.0918.0563.0099,1.0408-14.3589,17.7296,37.5486-.003.0144,12.5442,30.8779Zm-11.1063-37.3342l-18.5274-39.2369,37.8832-45.0418c-4.5111,19.3883-14.1013,60.5214-14.1398,60.6738l-5.216,23.6049Zm44.6374-45.0552l19.7263-18.8468,10.838,33.8195-11.5469,27.5151-19.0174-42.4878Zm11.664,69.6015l20.7088-48.4769,11.5657,48.4769h-32.2745Z"/>
</svg>