<svg width="42" height="45" viewBox="0 0 42 45" fill="none" xmlns="http://www.w3.org/2000/svg">
<g clip-path="url(#clip0_2798_1973)">
<path d="M11.5826 34.9974L16.7107 26.6209L21.7592 31.6396L15.9562 33.5543L11.5826 34.9974ZM25.6181 6.04324L29.395 22.2245L21.9762 17.6919L25.6181 6.04324ZM22.016 30.9135L17.0821 26.0087L21.4117 18.7588L22.016 30.9135ZM16.3474 25.8821L13.941 29.8127L11.056 24.8988L10.6631 24.2294L19.2341 21.0481L16.3474 25.8821ZM22.099 18.5827L29.3461 23.0103L22.7114 30.8956L22.099 18.5827ZM30.7434 23.8639L36.3754 27.3048L33.3775 30.1681L30.7434 23.8639ZM32.8361 30.6761L27.8914 33.3432C28.4384 31.0004 29.5437 26.2531 30.0604 24.0333L32.8361 30.6761ZM30.4561 22.8728L36.3432 18.5624L36.9136 26.818L30.4561 22.8728ZM36.174 17.8237L30.5349 21.9525C31.075 19.5211 32.5569 12.8646 33.0871 10.6305L36.174 17.8237ZM28.2387 0L33.1507 3.78206L30.3439 3.61475L28.2387 0ZM30.2576 4.30719L33.5308 4.50222L30.6801 7.76102L28.2418 6.04759L30.2576 4.30719ZM32.5439 9.92128C32.2021 11.2629 30.587 18.5115 29.9313 21.4629L26.1961 5.4609L32.5439 9.92128ZM20.1919 7.45224L25.1248 5.29018L23.1964 11.4584L18.7824 10.3455L20.1919 7.45224ZM18.9804 8.35109L18.0934 10.1717L18.078 10.1678L15.2598 8.13064L17.4897 7.56378L18.9804 8.35109ZM17.2268 6.91207L15.2494 7.41475L17.7425 3.70673L17.2268 6.91207ZM16.8684 15.1167C16.7266 15.0445 16.6265 14.9102 16.5977 14.7535L16.0959 12.0186C16.02 11.7946 16.1501 11.5532 16.3788 11.494L18.4079 10.9692L22.9882 12.1241L21.3661 17.3124L16.8684 15.1167ZM5.10563 16.7058C5.14008 16.6259 5.39438 16.1414 5.50489 15.937C5.38717 15.8571 4.32112 15.5229 3.93171 15.4088C3.86687 15.3897 3.80355 15.3656 3.68684 15.326C3.80236 15.2843 3.86533 15.258 3.93036 15.2385C4.30559 15.1265 5.36798 14.7923 5.49404 14.7068C5.38904 14.5159 5.13764 14.0493 5.09962 13.9721C5.17711 14.0084 5.64614 14.256 5.83652 14.3617C5.92461 14.2299 6.25759 13.1697 6.36563 12.8003C6.38447 12.7357 6.409 12.6729 6.43098 12.6093C6.44515 12.609 6.45941 12.6086 6.47359 12.6083C6.54252 12.8365 6.61177 13.0646 6.68018 13.2929C6.74775 13.5183 6.99405 14.2559 7.07503 14.3744C7.27152 14.266 7.74878 14.0083 7.79096 13.9877C7.79809 13.9946 7.8053 14.0014 7.81243 14.0083C7.73409 14.1549 7.47955 14.6293 7.43057 14.7199C7.54209 14.7915 8.70473 15.1597 9.21645 15.3122C9.10669 15.3561 9.05501 15.3818 9.00052 15.3978C8.60422 15.5138 7.53317 15.8495 7.41707 15.926C7.54921 16.1705 7.68358 16.4192 7.83381 16.6971C7.7581 16.6645 7.26743 16.4018 7.05822 16.287C6.98565 16.3986 6.61287 17.5744 6.45966 18.091C6.41382 17.9751 6.38794 17.9212 6.37097 17.8646C6.25028 17.4617 5.91832 16.4056 5.8528 16.2998C5.61523 16.4281 5.37367 16.5602 5.10563 16.7058ZM7.13367 23.8402L6.27982 20.9659L6.45322 19.4335L6.8193 18.8157L7.02471 20.9469L8.17818 23.8475L9.53875 24.1929L8.64448 25.5697L7.13367 23.8402ZM8.72629 26.7208L8.87618 26.49L10.0882 24.6241L13.3408 30.1642L6.91264 29.5129L8.72629 26.7208ZM6.6077 30.1821L13.2998 30.86L10.3895 35.6138L6.60786 38.0926L5.53265 33.942L6.6077 30.1821ZM4.80976 42.738H0L5.04903 34.8475L6.04074 38.6755L4.80976 42.738ZM16.0851 34.245L22.045 32.2786L21.8664 35.4727L19.8964 36.7819L16.8841 38.5263L16.0851 34.245ZM14.3593 42.738L16.5869 39.5028L19.2686 37.9499L20.1567 42.738H14.3593ZM27.9106 45H20.9884L22.5209 35.7094L22.5306 35.7111L22.7094 33.2449L25.7557 39.6941L25.7552 39.6965L27.9106 45ZM26.0023 38.5876L22.8189 31.8485L29.328 24.1123C28.5529 27.4423 26.9051 34.5072 26.8985 34.5333L26.0023 38.5876ZM33.6719 30.8491L37.0612 27.6121L38.9234 33.4208L36.9395 38.1467L33.6719 30.8491ZM35.676 42.8036L39.2342 34.4774L41.2214 42.8036H35.676Z" fill="white"/>
</g>
<defs>
<clipPath id="clip0_2798_1973">
<rect width="41.2214" height="45" fill="white"/>
</clipPath>
</defs>
</svg>
