<svg xmlns="http://www.w3.org/2000/svg" viewBox="0 0 154.58 166.03"><defs><style>.cls-1{fill:#0f9eb9;}</style></defs><g id="Layer_2" data-name="Layer 2"><g id="Layer_1-2" data-name="Layer 1"><path class="cls-1" d="M102,145.24h-.06s-2.18-30,14.87-46.08c8.29-7.8,19.6-10.88,29-12a155.65,155.65,0,0,0,8.79-47.47,6,6,0,0,0-5-6.12C126.1,29.7,93.06,1.8,78,.09V0c-.22,0-.46,0-.69,0s-.47,0-.69,0V.09C61.53,1.8,28.48,29.7,5,33.59a6,6,0,0,0-5,6.12A155.94,155.94,0,0,0,8.78,87.14c9.5,1.07,21,4.12,29.34,12C55.17,115.21,53,145.23,53,145.23h-.06c-1.61-9.45-5.34-20.79-13.77-28.73-6.45-6.08-14.73-9.29-22.53-10.93C31.91,136,54.07,156.2,67,166l-1.14-43.69A52.74,52.74,0,0,0,14.14,73.75H12.9a1.64,1.64,0,0,1-1.66-1.69c1.4-34.85,31.41-41.52,33.12-39.82-10.43,10-15.55,20.89-15,29.14a4.23,4.23,0,0,0,3.05,3.72c26.32,7.82,42.81,16.17,44.87,18.08,2.06-1.91,18.56-10.26,44.87-18.08a4.23,4.23,0,0,0,3.06-3.72c.55-8.25-4.56-19.17-15-29.14,1.7-1.7,31.71,5,33.11,39.82a1.64,1.64,0,0,1-1.66,1.69h-1.24a52.74,52.74,0,0,0-51.66,48.59L87.63,166c12.87-9.82,35-30,50.3-60.38-7.71,1.67-15.84,4.87-22.21,10.86C107.29,124.45,103.57,135.79,102,145.24Z"/></g></g></svg>