<svg width="47" height="47" viewBox="0 0 47 47" fill="none" xmlns="http://www.w3.org/2000/svg">
<path d="M23.3125 0.3125C10.6304 0.3125 0.3125 10.6304 0.3125 23.3125C0.3125 35.9946 10.6304 46.3125 23.3125 46.3125C35.9946 46.3125 46.3125 35.9946 46.3125 23.3125C46.3125 10.6304 35.9946 0.3125 23.3125 0.3125ZM30.9755 10.9467C32.5606 10.9489 34.1095 11.4209 35.4264 12.3031C36.7433 13.1854 37.7691 14.4382 38.3742 15.9033C38.9793 17.3683 39.1364 18.9799 38.8259 20.5343C38.5153 22.0887 37.7509 23.5161 36.6293 24.6362C35.5077 25.7562 34.0792 26.5187 32.5244 26.8271C30.9696 27.1355 29.3582 26.9761 27.894 26.369C26.4297 25.7619 25.1783 24.7344 24.2979 23.4163C23.4175 22.0981 22.9476 20.5486 22.9476 18.9635C22.9483 17.91 23.1565 16.8669 23.5604 15.8939C23.9642 14.9209 24.5557 14.0369 25.3012 13.2925C26.0467 12.548 26.9314 11.9577 27.905 11.5552C28.8786 11.1527 29.922 10.946 30.9755 10.9467ZM13.825 13.8615C15.122 13.8632 16.3893 14.2494 17.4668 14.9712C18.5443 15.6931 19.3837 16.7181 19.8788 17.9169C20.3739 19.1156 20.5026 20.4342 20.2485 21.706C19.9944 22.9778 19.3689 24.1458 18.4512 25.0622C17.5335 25.9787 16.3647 26.6026 15.0926 26.8549C13.8204 27.1073 12.502 26.9769 11.3039 26.4802C10.1059 25.9835 9.08195 25.1427 8.36158 24.0642C7.64121 22.9857 7.25673 21.7179 7.25673 20.4209C7.25717 19.5589 7.42742 18.7054 7.75777 17.9092C8.08812 17.113 8.57209 16.3897 9.18204 15.7805C9.79199 15.1714 10.516 14.6884 11.3126 14.3591C12.1093 14.0299 12.963 13.8608 13.825 13.8615ZM5.43774 31.0009C8.14687 29.5313 11.6157 28.796 13.825 28.796C15.4837 28.796 17.62 29.1277 19.7221 29.9239C18.3129 30.7102 17.0428 31.723 15.9625 32.9216C14.5039 34.5803 13.6669 36.5618 13.6669 38.5423V40.2009C10.0045 38.1032 7.11806 34.8781 5.43774 31.0064V31.0009ZM23.3125 42.774C21.0735 42.7759 18.8512 42.3894 16.7442 41.6318V38.6407C16.7442 32.8254 26.2262 29.8951 30.9755 29.8951C33.5187 29.8951 37.431 30.7388 40.5083 32.4174C38.8523 35.5422 36.3768 38.1571 33.3474 39.9817C30.318 41.8062 26.8489 42.7715 23.3125 42.774Z" fill="#D1CCF1"/>
</svg>
