<svg width="42" height="45" viewBox="0 0 42 45" fill="none" xmlns="http://www.w3.org/2000/svg">
<path d="M24 45H23.75C23.83 41.5 23.92 38 23.99 34.51C24.15 26.39 29.72 20.52 37.82 20C38.58 19.95 38.84 19.71 38.78 18.95C38.55 15.83 37.46 13.1 35.08 11.02C33.7 9.81 32.13 8.9 29.99 8.71C30.38 9.16 30.62 9.43 30.86 9.7C32.26 11.32 33.45 13.06 33.88 15.22C34.23 16.98 33.93 17.34 32.27 17.97C28.7 19.32 25.16 20.77 21.6 22.15C21.26 22.28 20.79 22.35 20.47 22.22C16.71 20.77 12.99 19.24 9.22002 17.83C8.26002 17.47 7.77002 16.94 7.99002 16C8.28002 14.76 8.59002 13.48 9.17002 12.37C9.84002 11.11 10.82 10.01 11.69 8.79C11.5 8.78 11.34 8.73 11.19 8.76C10.78 8.85 10.37 8.93 9.99002 9.09C5.76002 10.85 3.68002 14.14 3.14002 18.59C3.01002 19.65 3.27002 19.96 4.35002 20C11.29 20.24 17.27 25.87 17.79 32.76C18.09 36.83 18.12 40.91 18.26 44.99H18.01C13.41 41.22 9.37002 36.95 6.28002 31.84C5.69002 30.87 5.16002 29.86 4.47002 28.62C9.93002 29.71 12.87 32.96 14.26 37.89C14.26 36.66 14.2 35.5 13.99 34.36C13.04 29.19 10.45 25.25 5.03002 24.23C2.56002 23.77 1.69002 22.59 1.39002 20.45C1.36002 20.25 1.29002 20.05 1.25002 19.84C0.84002 17.64 0.43002 15.44 0.0200195 13.24C0.0200195 12.16 0.0200195 11.07 0.0200195 9.99C0.49002 9.68 0.93002 9.28 1.44002 9.07C3.87002 8.06 6.40002 7.24 8.76002 6.07C12.63 4.17 16.42 2.04 20.25 0C20.75 0 21.25 0 21.75 0C24.6 1.51 27.48 2.99 30.31 4.54C33.4 6.24 36.43 8.06 39.88 9.01C40.65 9.22 41.3 9.83 42.01 10.25V12C41.94 12.32 41.87 12.63 41.8 12.95C41.15 16.2 40.49 19.45 39.84 22.71C39.7 23.42 39.34 23.69 38.59 23.81C33.31 24.61 29.75 27.47 28.39 32.73C27.98 34.31 27.84 35.95 27.58 37.57C27.7 37.61 27.83 37.64 27.95 37.68C29.22 32.81 32.15 29.7 37.41 28.67C35.41 32.62 33.07 36.04 30.2 39.07C28.23 41.14 26.08 43.04 24.01 45.01L24 45Z" fill="white"/>
</svg>
