<svg width="300" height="72" viewBox="0 0 300 72" fill="none" xmlns="http://www.w3.org/2000/svg">
<path fill-rule="evenodd" clip-rule="evenodd" d="M0 72L25 59.9306C50 47.8613 100 23.9306 150 13.526C200 2.91329 264.67 8.48266 275 7.49133C285.33 6.5 300 0 300 0H275C250 0 200 0 150 0C100 0 50 0 25 0H0V72Z" fill="#383448" fill-opacity="0.6"/>
<g clip-path="url(#clip0_143_3190)">
<path d="M44 58H43.75C43.83 54.5 43.92 51 43.99 47.51C44.15 39.39 49.72 33.52 57.82 33C58.58 32.95 58.84 32.71 58.78 31.95C58.55 28.83 57.46 26.1 55.08 24.02C53.7 22.81 52.13 21.9 49.99 21.71C50.38 22.16 50.62 22.43 50.86 22.7C52.26 24.32 53.45 26.06 53.88 28.22C54.23 29.98 53.93 30.34 52.27 30.97C48.7 32.32 45.16 33.77 41.6 35.15C41.26 35.28 40.79 35.35 40.47 35.22C36.71 33.77 32.99 32.24 29.22 30.83C28.26 30.47 27.77 29.94 27.99 29C28.28 27.76 28.59 26.48 29.17 25.37C29.84 24.11 30.82 23.01 31.69 21.79C31.5 21.78 31.34 21.73 31.19 21.76C30.78 21.85 30.37 21.93 29.99 22.09C25.76 23.85 23.68 27.14 23.14 31.59C23.01 32.65 23.27 32.96 24.35 33C31.29 33.24 37.27 38.87 37.79 45.76C38.09 49.83 38.12 53.91 38.26 57.99H38.01C33.41 54.22 29.37 49.95 26.28 44.84C25.69 43.87 25.16 42.86 24.47 41.62C29.93 42.71 32.87 45.96 34.26 50.89C34.26 49.66 34.2 48.5 33.99 47.36C33.04 42.19 30.45 38.25 25.03 37.23C22.56 36.77 21.69 35.59 21.39 33.45C21.36 33.25 21.29 33.05 21.25 32.84C20.84 30.64 20.43 28.44 20.02 26.24C20.02 25.16 20.02 24.07 20.02 22.99C20.49 22.68 20.93 22.28 21.44 22.07C23.87 21.06 26.4 20.24 28.76 19.07C32.63 17.17 36.42 15.04 40.25 13C40.75 13 41.25 13 41.75 13C44.6 14.51 47.48 15.99 50.31 17.54C53.4 19.24 56.43 21.06 59.88 22.01C60.65 22.22 61.3 22.83 62.01 23.25V25C61.94 25.32 61.87 25.63 61.8 25.95C61.15 29.2 60.49 32.45 59.84 35.71C59.7 36.42 59.34 36.69 58.59 36.81C53.31 37.61 49.75 40.47 48.39 45.73C47.98 47.31 47.84 48.95 47.58 50.57C47.7 50.61 47.83 50.64 47.95 50.68C49.22 45.81 52.15 42.7 57.41 41.67C55.41 45.62 53.07 49.04 50.2 52.07C48.23 54.14 46.08 56.04 44.01 58.01L44 58Z" fill="white"/>
</g>
<defs>
<clipPath id="clip0_143_3190">
<rect width="42" height="45" fill="white" transform="translate(20 13)"/>
</clipPath>
</defs>
</svg>
