<svg xmlns="http://www.w3.org/2000/svg" viewBox="0 0 1115.22 303.24"><g id="Layer_2" data-name="Layer 2"><g id="Layer_1-2" data-name="Layer 1"><path d="M493.57,206c-2.81,1.74-5.55,3.66-8.48,5.22-12.13,6.45-26.54,4.89-35.26-3.74-5-5-7.34-11.29-8-18.1-1.65-16.64,2.07-31.86,13.08-44.79C463,135,473.6,131.19,486,132.5a16.92,16.92,0,0,1,9.93,4.61c1.69,1.57,3.46,3,5.24,4.6-.19.12,0,.08,0,0,2.06-6.44,2.06-6.44,9.1-6.44,3.94,0,7.89.09,11.84,0,2.53-.06,3.24,1.05,2.9,3.42q-3.35,23.24-6.59,46.49c-1.1,7.8-2.29,15.6-3.11,23.43-.34,3.26-1.59,4.46-4.81,4.28a97.88,97.88,0,0,0-11.49,0c-3.27.22-4.75-.94-4.68-4.24A3.08,3.08,0,0,0,493.57,206Zm-27.83-31.91c-.1,9.48,2.7,14.67,7.75,16.67,5.68,2.27,12.29.4,17-4.83,4.52-5,6.18-11,5.8-17.7-.57-9.82-9.31-15.54-18.3-11.62A19.9,19.9,0,0,0,465.74,174.05Z"/><path d="M747.81,204.93c-5.77,5.49-12,8.92-19.9,9.53-20.34,1.58-28.73-11.33-26.76-28.15,1.89-16.24,4.47-32.4,6.68-48.6.3-2.17,1-3.37,3.44-3.33,7,.09,13.94.06,20.9,0,2.21,0,3.09.58,2.73,3.06-1.89,13.32-3.63,26.66-5.42,40-.06.45-.17.91-.21,1.37-.6,5.87,1.23,10,5.1,11.51,4.62,1.82,10.78-.15,14-4.44,2.6-3.48,3.46-7.57,4-11.72q2.61-18.42,5-36.88c.29-2.16,1.39-2.92,3.49-2.9q10.46.09,20.91,0c2.51,0,3.11,1,2.75,3.43q-5.19,36-10.15,72c-.32,2.32-1.3,3.17-3.6,3.14-6.39-.1-12.78,0-19.16,0-4.09,0-4.37-.38-3.86-4.43C747.93,207.47,748.45,206.47,747.81,204.93Z"/><path d="M583.37,205.62c-5.1,3.79-10,7.13-16.15,8.29a35.82,35.82,0,0,1-15.86-.38c-9.38-2.44-15.24-10.84-15.32-22.37,0-7.22,1.59-14.28,2.55-21.4,1.39-10.23,2.93-20.43,4.14-30.68.43-3.61,1.84-4.93,5.52-4.76,6.14.29,12.31.19,18.46,0,3-.07,3.95,1,3.53,3.93-1.94,13.31-3.77,26.64-5.73,39.94-.85,5.78.8,10.19,4.77,12,4.4,2,10.47.28,13.85-3.77,4-4.77,4.11-10.71,5-16.4,1.6-10.67,3.15-21.34,4.57-32,.36-2.74,1.48-3.72,4.25-3.65,6.38.17,12.78.18,19.16,0,3.16-.09,4.15,1.07,3.69,4.1-1.46,9.75-2.83,19.51-4.22,29.27q-2.76,19.46-5.49,38.92c-.18,1.27-.44,2.52-.58,3.78a2.44,2.44,0,0,1-2.73,2.48q-10.8,0-21.6,0c-2,0-2.69-.9-2.32-2.85C583.1,208.59,583.2,207.1,583.37,205.62Z"/><path d="M923.07,180.85c-7.78,0-15.56.12-23.34,0-3.23-.07-3.8,1.31-3.1,4.05,1.12,4.4,5.7,8.24,10.62,8.85,7.12.89,13.71-.35,19.16-5.27,2.19-2,3.77-1.79,5.93,0,3.51,2.86,7.24,5.44,10.92,8.08,1.4,1,1.76,1.95.48,3.38-15.25,17.23-44.48,19.85-60.45,8.08-11.42-8.42-14.72-20.4-12.69-33.71,3.24-21.15,15.17-35.33,36.08-41a39.05,39.05,0,0,1,26,1.44c11.68,5,17.22,14.53,18.88,26.8.75,5.63,0,11.09-.82,16.6-.32,2.22-1.57,2.79-3.61,2.78C939.09,180.81,931.08,180.85,923.07,180.85Zm-10.26-15.59c3.93,0,7.87,0,11.8,0,1.82,0,2.78-.62,2.74-2.64a11.52,11.52,0,0,0-7.87-10.39,17.2,17.2,0,0,0-20.43,10.24c-.83,2.16,0,2.77,2,2.78Z"/><path d="M1014.68,180.86c-7.78,0-15.56,0-23.34,0-3.35,0-3.9.76-3.11,3.94,1.11,4.45,5.7,8.27,10.58,8.9,7.27.94,13.93-.46,19.47-5.43,2-1.8,3.39-1.65,5.35-.1,3.64,2.88,7.43,5.56,11.19,8.28,1.35,1,1.87,1.88.56,3.37-15.53,17.72-45.5,19.69-61,7.73-8.23-6.34-12.06-14.9-12.54-25A48.1,48.1,0,0,1,998,133.32a41,41,0,0,1,24.7.77c11.49,4.2,17.85,12.85,20.08,24.69,1.2,6.36.73,12.69-.32,19-.38,2.31-1.45,3.1-3.71,3.08C1030.71,180.8,1022.69,180.85,1014.68,180.86Zm-10.34-15.61v0h5.9c2,0,3.93,0,5.9,0,1.78,0,2.8-.56,2.79-2.6,0-4.28-3.36-9-7.46-10.34-8.24-2.61-17.54,2-20.8,10.12-.82,2.05-.18,2.81,1.86,2.81Z"/><path d="M414.74,103.81q21.25,0,42.51,0c4.42,0,4.48.14,3.86,4.57-.69,4.94-1.48,9.87-1.95,14.83-.28,3.06-1.53,4.12-4.63,4.06-8.6-.18-17.2,0-25.79-.12-2.94,0-3.89.87-4.27,3.87-1.76,13.81-3.89,27.57-5.84,41.35-1.74,12.29-3.5,24.58-5.06,36.89-.34,2.65-1.31,3.63-3.93,3.59-6.39-.11-12.78-.18-19.17,0-3.46.1-4.16-1.39-3.72-4.44q4-27.56,7.85-55.13c1-7.35,2-14.7,3.14-22,.45-3-.43-4.18-3.66-4.11-8.7.17-17.42,0-26.13.09-2.82,0-3.7-.91-3.21-3.72.91-5.26,1.65-10.55,2.26-15.85.33-2.87,1.62-3.94,4.53-3.92C385.93,103.87,400.33,103.81,414.74,103.81Z"/><path d="M821.15,215c-10.53-.42-20.37-3-29-9.35-2.2-1.64-2.85-2.94-.64-5.21,3.55-3.66,6.89-7.55,10.17-11.46,1.67-2,2.94-2.26,5.14-.54,5.62,4.37,11.88,7.24,19.29,6.69a10.07,10.07,0,0,0,4.31-1.19,5,5,0,0,0,2.87-4.08c.14-2.13-1.33-3.21-3-3.88-4.51-1.84-9-3.62-13.65-5.23-18-6.3-22.73-23.07-10.09-37.59,10-11.45,23.17-13.74,37.51-11.38a44.37,44.37,0,0,1,18.36,7.13c2.27,1.57,2.88,2.91.78,5.21-3.36,3.69-6.53,7.56-9.63,11.47-1.52,1.92-2.87,2.3-5,.84-4.17-2.92-8.92-4.35-13.91-5.22a10.45,10.45,0,0,0-7,1.44c-3.52,2-3.35,5.57.35,7.56,3.3,1.77,7,2.53,10.53,3.58,5.14,1.52,10.18,3.28,14.29,6.94,7.1,6.32,7.22,14.29,4.7,22.45-3.61,11.74-12.54,17.72-24,20.33A43.68,43.68,0,0,1,821.15,215Z"/><path d="M667.56,145.13c6-7.51,13.22-11.67,22.29-12.52,5.49-.51,6.39.44,5.32,5.84-1.15,5.8-2.3,11.61-3.24,17.45-.41,2.49-1.57,3.28-4,3.11a26.65,26.65,0,0,0-8.3.55C670,162,664,169.32,662.4,180.43c-1.38,9.65-2.84,19.27-4.09,28.93-.35,2.68-1.58,3.52-4.1,3.49-7-.08-13.94,0-20.9,0-4,0-4.44-.49-3.88-4.5,2.11-15.28,4.29-30.54,6.42-45.82,1.12-8,2.3-16.06,3.23-24.12.35-3.11,1.5-4.52,4.78-4.45,6.85.16,13.7,0,20.55.07,3.84,0,4.15.45,3.53,4.35C667.61,140.38,667,142.39,667.56,145.13Z"/><path d="M1087.21,145.13c6-7.51,13.23-11.67,22.29-12.52,5.5-.51,6.4.44,5.33,5.84-1.15,5.8-2.3,11.61-3.25,17.45-.4,2.49-1.56,3.28-4,3.11a26.71,26.71,0,0,0-8.31.55c-9.59,2.41-15.65,9.76-17.24,20.87-1.37,9.65-2.84,19.27-4.08,28.93-.35,2.68-1.58,3.52-4.11,3.49-7-.08-13.93,0-20.89,0-4,0-4.44-.49-3.89-4.5,2.12-15.28,4.3-30.54,6.43-45.82,1.12-8,2.3-16.06,3.22-24.12.36-3.11,1.51-4.52,4.79-4.45,6.85.16,13.7,0,20.55.07,3.84,0,4.15.45,3.53,4.35C1087.27,140.38,1086.61,142.39,1087.21,145.13Z"/><path d="M186.22,265.28l-.12,0s-4-54.83,27.16-84.16c15.13-14.26,35.79-19.87,53-21.88a284.28,284.28,0,0,0,16.05-86.69,11,11,0,0,0-9.17-11.17C230.32,54.25,170,3.28,142.43.16V0c-.4,0-.84.06-1.26.08S140.31,0,139.91,0V.16C112.37,3.28,52,54.25,9.18,61.36A11,11,0,0,0,0,72.53a284.5,284.5,0,0,0,16,86.63c17.35,2,38.29,7.52,53.59,21.94,31.15,29.33,27.15,84.16,27.15,84.16l-.11,0c-3-17.26-9.75-38-25.15-52.48-11.78-11.1-26.9-17-41.15-20,27.93,55.63,68.4,92.45,91.92,110.4l-2.09-79.79c-4-49.44-44.78-88-94.37-88.75H23.56a3,3,0,0,1-3-3.09C23.09,68,77.91,55.76,81,58.86,62,77.07,52.62,97,53.64,112.08a7.71,7.71,0,0,0,5.58,6.8c48.06,14.29,78.19,29.54,81.95,33,3.76-3.48,33.89-18.73,82-33a7.71,7.71,0,0,0,5.58-6.8c1-15.06-8.33-35-27.37-53.22,3.1-3.1,57.92,9.09,60.48,72.74a3,3,0,0,1-3,3.09h-2.26c-49.59.74-90.38,39.31-94.37,88.75l-2.08,79.79C183.56,285.3,224,248.53,251.92,193c-14.07,3-28.94,8.88-40.56,19.83C196,227.3,189.17,248,186.22,265.28Z"/></g></g></svg>