<?xml version="1.0" encoding="UTF-8"?>
<svg id="Layer_1" data-name="Layer 1" xmlns="http://www.w3.org/2000/svg" xmlns:xlink="http://www.w3.org/1999/xlink" viewBox="0 0 240 262">
  <defs>
    <style>
      .cls-1 {
        fill: url(#linear-gradient);
      }
    </style>
    <linearGradient id="linear-gradient" x1="40.1206" y1="259.834" x2="235.034" y2="64.9206" gradientUnits="userSpaceOnUse">
      <stop offset="0" stop-color="#2727b6"/>
      <stop offset="1" stop-color="#ff0067"/>
    </linearGradient>
  </defs>
  <path class="cls-1" d="m67.4363,203.7624l29.8572-48.7694,29.3932,29.2198-33.7863,11.1476-25.464,8.402ZM149.154,35.1851l21.9905,94.2107-43.1943-26.3896,21.2038-67.8211Zm-20.972,144.8001l-28.7265-28.557,25.208-42.2101,3.5185,70.7672Zm-33.0041-29.294l-14.0102,22.8847-16.7973-28.6095-2.2875-3.8974,49.9026-18.5221-16.8077,28.1442Zm33.4873-42.4987l42.1941,25.7788-38.6287,45.9095-3.5654-71.6883Zm50.3296,30.7487l32.7911,20.0337-17.4545,16.6704-15.3365-36.7042Zm12.1842,39.6621l-28.7888,15.5281c3.1844-13.6403,9.62-41.2801,12.628-54.2041l16.1608,38.6761Zm-13.857-45.4329l34.276-25.0957,3.3213,48.0656-37.5974-22.9699Zm33.2912-29.397l-32.8321,24.039c3.1444-14.1565,11.7721-52.9118,14.8592-65.9195l17.9729,41.8805ZM164.4119,0l28.599,22.02-16.3422-.9741L164.4119,0Zm11.7543,25.0774l19.0576,1.1355-16.5972,18.9735-14.1965-9.976,11.736-10.1329Zm13.3114,32.6865c-1.99,7.811-11.3931,50.0143-15.211,67.198l-21.7469-93.1673,36.9579,25.9693Zm-71.9159-14.3753l28.7206-12.588-11.228,35.9127-25.6988-6.4796,8.2062-16.8452Zm-7.0538,5.2333l-5.1641,10.6002-.0899-.0228-16.4079-11.8609,12.9828-3.3004,8.6791,4.5839Zm-10.2095-8.3783l-11.5131,2.9267,14.5157-21.5889-3.0026,18.6622Zm-2.0869,47.7691c-.8258-.4202-1.4084-1.2023-1.5759-2.1145l-2.9215-15.923c-.4423-1.3042.3153-2.7099,1.6471-3.0544l11.8136-3.0559,26.6678,6.7241-9.4446,30.2077-26.1865-12.784Zm-68.4854,9.2519c.2006-.4648,1.6812-3.2856,2.3246-4.476-.6854-.4648-6.8922-2.411-9.1594-3.0752-.3775-.1109-.7462-.2514-1.4257-.4821.6726-.243,1.0392-.396,1.4178-.5093,2.1847-.6519,8.3702-2.5981,9.1041-3.0955-.6113-1.1117-2.075-3.8286-2.2964-4.278.4512.2118,3.182,1.6532,4.2904,2.2684.5129-.7672,2.4516-6.9399,3.0806-9.091.1097-.3757.2525-.7415.3805-1.1117.0825-.002.1655-.004.2481-.0059.4013,1.3285.8045,2.6565,1.2028,3.986.3934,1.3122,1.8274,5.6065,2.2989,6.2965,1.144-.6311,3.9227-2.1313,4.1683-2.2511.0415.0401.0835.0797.125.1198-.4561.8533-1.9381,3.6157-2.2233,4.1429.6493.4168,7.4185,2.561,10.3978,3.4489-.639.2554-.9399.4049-1.2572.4979-2.3073.6756-8.5432,2.6302-9.2192,3.0757.7694,1.4235,1.5517,2.8713,2.4264,4.4893-.4408-.1896-3.2976-1.7195-4.5157-2.3877-.4225.6499-2.5929,7.4958-3.4849,10.5032-.2669-.6746-.4176-.9884-.5164-1.3181-.7027-2.3456-2.6354-8.4946-3.0169-9.1103-1.3832.7469-2.7896,1.5161-4.3502,2.3635Zm11.8077,41.5385l-4.9713-16.7348,1.0096-8.9222,2.1314-3.5969,1.1959,12.4083,6.7158,16.8882,7.9215,2.011-5.2066,8.0155-8.7962-10.0691Zm9.2726,16.7714l.8727-1.3438,7.0567-10.864,18.9375,32.2559-37.4264-3.7919,10.5594-16.2561h0Zm-12.3349,20.1525l38.9627,3.9469-16.9441,27.6775-22.0177,14.4322-6.2601-24.1657,6.2591-21.8908Zm-10.468,73.1034H0l29.3966-45.9407,5.7739,22.2878-7.1669,23.6529Zm65.6474-49.4485l34.7-11.449-1.0397,18.5968-11.4702,7.6225-17.5381,10.1562-4.6521-24.9265Zm-10.0479,49.4485l12.9695-18.8364,15.6138-9.0415,5.1705,27.8779h-33.7537Zm78.8985,13.1695h-40.3024l8.9227-54.0918.0563.0099,1.0412-14.3589,17.7362,37.5486-.003.0144,12.5489,30.8779Zm-11.1104-37.3342l-18.5343-39.2369,37.8973-45.0418c-4.5127,19.3883-14.1065,60.5214-14.1451,60.6738l-5.2179,23.6049Zm44.6541-45.0552l19.7336-18.8468,10.8421,33.8195-11.5512,27.5151-19.0245-42.4878Zm11.6683,69.6015l20.7165-48.4769,11.57,48.4769h-32.2865Z"/>
</svg>