<svg width="64" height="52" viewBox="0 0 64 52" fill="none" xmlns="http://www.w3.org/2000/svg">
<path d="M56 51.9999C55.7373 52.0004 55.4772 51.9488 55.2345 51.8481C54.9919 51.7475 54.7715 51.5999 54.5863 51.4137L6.58625 3.41368C6.22701 3.03555 6.02969 2.53205 6.03637 2.01053C6.04305 1.48901 6.25319 0.990723 6.62199 0.62192C6.9908 0.253117 7.48908 0.0429741 8.0106 0.0362969C8.53213 0.0296198 9.03563 0.226936 9.41375 0.586176L57.4137 48.5862C57.6933 48.8659 57.8836 49.2222 57.9607 49.61C58.0378 49.9978 57.9982 50.3998 57.8469 50.7652C57.6956 51.1305 57.4394 51.4428 57.1107 51.6626C56.7819 51.8823 56.3954 51.9997 56 51.9999ZM4.84 18.5974C1.67375 21.4849 0 25.4274 0 29.9999C0 34.4999 1.7975 38.6099 5.06125 41.5737C8.205 44.4287 12.445 45.9999 17 45.9999H41.1C41.2979 46.0001 41.4914 45.9415 41.656 45.8316C41.8206 45.7218 41.9489 45.5655 42.0246 45.3827C42.1004 45.1999 42.1202 44.9987 42.0815 44.8046C42.0429 44.6105 41.9475 44.4323 41.8075 44.2924L12.61 15.0949C12.4817 14.9664 12.3209 14.8752 12.1447 14.8312C11.9685 14.7871 11.7837 14.7919 11.61 14.8449C9 15.6437 6.675 16.9224 4.84 18.5974ZM59.5737 42.9037C62.47 40.5974 64 37.1737 64 32.9999C64 25.8037 58.75 21.6774 53.055 20.4062C52.6804 20.3208 52.3383 20.1294 52.0696 19.8547C51.801 19.5801 51.6171 19.2338 51.54 18.8574C50.58 14.2724 48.4838 10.3387 45.3925 7.35743C41.7945 3.8985 36.9909 1.97686 32 1.99993C28.11 1.99993 24.485 3.12493 21.4225 5.26243C21.3012 5.34539 21.1997 5.45407 21.1252 5.58072C21.0507 5.70738 21.005 5.8489 20.9914 5.99521C20.9778 6.14153 20.9966 6.28905 21.0465 6.42727C21.0964 6.56549 21.1761 6.69102 21.28 6.79493L57.71 43.2249C57.8754 43.3904 58.0935 43.4926 58.3265 43.5138C58.5594 43.5351 58.7924 43.474 58.985 43.3412C59.1875 43.2012 59.3838 43.0553 59.5737 42.9037Z" fill="#0F0B29"/>
</svg>
