<svg width="112" height="112" viewBox="0 0 112 112" fill="none" xmlns="http://www.w3.org/2000/svg">
<path d="M111.36 4.51541C111.359 4.50796 111.359 4.50037 111.36 4.49291C111.149 3.5662 110.682 2.71701 110.014 2.04115C109.346 1.36529 108.502 0.889654 107.577 0.667911C100.127 -1.14959 88.4075 0.787911 75.42 5.98791C62.33 11.2379 50.065 18.9879 41.775 27.2929C39.1178 29.9359 36.6493 32.762 34.3875 35.7504C28.805 35.5004 23.8875 36.2954 19.745 38.1029C5.30997 44.4554 1.18747 60.7129 0.0899702 67.3879C-0.0688412 68.3363 -0.0066582 69.3086 0.27168 70.2291C0.550019 71.1496 1.037 71.9934 1.69474 72.6949C2.35247 73.3964 3.16321 73.9367 4.06387 74.2737C4.96452 74.6107 5.93078 74.7354 6.88747 74.6379H6.91997L23 72.8829C23.02 73.0879 23.0425 73.2754 23.06 73.4479C23.2665 75.4073 24.1403 77.2362 25.535 78.6279L33.3825 86.4804C34.7721 87.877 36.6006 88.7519 38.56 88.9579L39.0975 89.0154L37.3475 105.075V105.108C37.258 105.973 37.3501 106.847 37.6177 107.674C37.8853 108.502 38.3226 109.264 38.9017 109.913C39.4808 110.561 40.1888 111.082 40.9806 111.442C41.7724 111.801 42.6305 111.991 43.5 112C43.8476 112.001 44.1946 111.972 44.5375 111.915C51.25 110.835 67.5 106.763 73.835 92.2504C75.6275 88.1354 76.42 83.2379 76.1975 77.6654C79.1993 75.4086 82.0357 72.9398 84.685 70.2779C93.0425 61.9629 100.817 49.7979 106.012 36.8979C111.185 24.0579 113.132 12.2504 111.36 4.51541ZM84.595 48.2354C82.5408 50.2917 79.9229 51.6926 77.0724 52.2607C74.2219 52.8289 71.2669 52.5388 68.5814 51.4272C65.8958 50.3156 63.6002 48.4325 61.9851 46.016C60.37 43.5995 59.5079 40.7582 59.5079 37.8517C59.5079 34.9451 60.37 32.1039 61.9851 29.6874C63.6002 27.2709 65.8958 25.3877 68.5814 24.2761C71.2669 23.1645 74.2219 22.8744 77.0724 23.4426C79.9229 24.0107 82.5408 25.4116 84.595 27.4679C85.9718 28.8241 87.0652 30.4405 87.8115 32.2232C88.5578 34.0058 88.9421 35.9191 88.9421 37.8517C88.9421 39.7842 88.5578 41.6975 87.8115 43.4802C87.0652 45.2628 85.9718 46.8793 84.595 48.2354Z" fill="url(#paint0_linear_1782_7870)"/>
<defs>
<linearGradient id="paint0_linear_1782_7870" x1="0.00415013" y1="56.001" x2="112.004" y2="56.0321" gradientUnits="userSpaceOnUse">
<stop stop-color="#261C67"/>
<stop offset="1" stop-color="#0F0B29"/>
</linearGradient>
</defs>
</svg>
