<svg width="15" height="16" viewBox="0 0 15 16" fill="none" xmlns="http://www.w3.org/2000/svg">
<path d="M4.11825 12.4435L5.94159 9.46522L7.73659 11.2496L5.67331 11.9304L4.11825 12.4435ZM9.10864 2.14871L10.4516 7.90203L7.81375 6.29046L9.10864 2.14871ZM7.82791 10.9915L6.07362 9.24752L7.61304 6.66981L7.82791 10.9915ZM5.81239 9.20252L4.95681 10.6001L3.93102 8.85291L3.79132 8.6149L6.83881 7.48378L5.81239 9.20252ZM7.85742 6.60718L10.4342 8.18145L8.07515 10.9851L7.85742 6.60718ZM10.931 8.48496L12.9335 9.70839L11.8676 10.7264L10.931 8.48496ZM11.6751 10.9071L9.91696 11.8554C10.1114 11.0224 10.5044 9.33443 10.6881 8.54518L11.6751 10.9071ZM10.8288 8.13254L12.922 6.59998L13.1248 9.53529L10.8288 8.13254ZM12.8619 6.33731L10.8569 7.80534C11.0489 6.94082 11.5758 4.57408 11.7643 3.77972L12.8619 6.33731ZM10.0404 0L11.7869 1.34473L10.7889 1.28525L10.0404 0ZM10.7582 1.53144L11.9221 1.60079L10.9085 2.75947L10.0415 2.15025L10.7582 1.53144ZM11.5712 3.52757C11.4496 4.00457 10.8754 6.58187 10.6422 7.63126L9.31418 1.94165L11.5712 3.52757ZM7.17934 2.64969L8.93327 1.88095L8.24759 4.07409L6.6782 3.67839L7.17934 2.64969ZM6.74857 2.96928L6.43321 3.61662L6.42772 3.61522L5.42571 2.89089L6.21855 2.68934L6.74857 2.96928ZM6.12509 2.45762L5.422 2.63635L6.30846 1.31795L6.12509 2.45762ZM5.99765 5.37482C5.94722 5.34916 5.91164 5.3014 5.90141 5.24569L5.723 4.27329C5.69599 4.19365 5.74225 4.1078 5.82358 4.08677L6.54503 3.90015L8.17359 4.31078L7.59682 6.15552L5.99765 5.37482ZM1.81533 5.93982C1.82758 5.91144 1.918 5.73918 1.95729 5.66648C1.91544 5.63809 1.5364 5.51924 1.39794 5.47868C1.37489 5.47191 1.35237 5.46333 1.31088 5.44924C1.35195 5.4344 1.37434 5.42506 1.39746 5.41814C1.53088 5.37833 1.90862 5.25948 1.95344 5.2291C1.9161 5.16121 1.82672 4.99529 1.8132 4.96785C1.84075 4.98078 2.00752 5.06881 2.07521 5.10638C2.10653 5.05952 2.22492 4.68257 2.26333 4.5512C2.27003 4.52826 2.27875 4.50592 2.28657 4.48331C2.29161 4.48319 2.29668 4.48307 2.30172 4.48295C2.32623 4.56408 2.35085 4.64518 2.37518 4.72637C2.3992 4.8065 2.48677 5.06875 2.51557 5.11089C2.58543 5.07235 2.75512 4.98073 2.77012 4.97342C2.77265 4.97587 2.77522 4.97828 2.77775 4.98073C2.7499 5.03284 2.6594 5.20154 2.64198 5.23373C2.68163 5.25919 3.09502 5.39013 3.27696 5.44435C3.23794 5.45995 3.21956 5.46908 3.20018 5.47476C3.05928 5.51602 2.67846 5.63538 2.63718 5.66259C2.68416 5.74952 2.73194 5.83794 2.78536 5.93675C2.75844 5.92517 2.58398 5.83174 2.50959 5.79093C2.48379 5.83062 2.35124 6.24869 2.29677 6.43235C2.28047 6.39115 2.27127 6.37199 2.26523 6.35185C2.22232 6.20861 2.10429 5.8331 2.081 5.7955C1.99653 5.84111 1.91064 5.88807 1.81533 5.93982ZM2.53642 8.47653L2.23282 7.45455L2.29448 6.90969L2.42464 6.69003L2.49767 7.44779L2.9078 8.47913L3.39155 8.60194L3.07359 9.09143L2.53642 8.47653ZM3.10268 9.50073L3.15598 9.41867L3.58692 8.75522L4.74341 10.725L2.45783 10.4935L3.10268 9.50073ZM2.3494 10.7314L4.72881 10.9725L3.69405 12.6627L2.34946 13.544L1.96716 12.0683L2.3494 10.7314ZM1.71014 15.1957H0L1.79521 12.3902L2.14782 13.7513L1.71014 15.1957ZM5.71914 12.176L7.83822 11.4768L7.77473 12.6125L7.07426 13.078L6.00323 13.6982L5.71914 12.176ZM5.10553 15.1957L5.89756 14.0454L6.85107 13.4933L7.16683 15.1957H5.10553ZM9.92376 16H7.46254L8.00744 12.6967L8.01088 12.6973L8.07446 11.8204L9.15759 14.1134L9.1574 14.1143L9.92376 16ZM9.24526 13.72L8.11339 11.3239L10.4277 8.57325C10.1521 9.75727 9.56627 12.2692 9.56391 12.2785L9.24526 13.72ZM11.9722 10.9686L13.1773 9.81763L13.8394 11.8829L13.134 13.5633L11.9722 10.9686ZM12.6848 15.2191L13.9499 12.2586L14.6565 15.2191H12.6848Z" fill="#4231B4"/>
</svg>
